<?xml version="1.0" standalone="no"?>
<!DOCTYPE svg PUBLIC "-//W3C//DTD SVG 20010904//EN"
 "http://www.w3.org/TR/2001/REC-SVG-20010904/DTD/svg10.dtd">
<svg version="1.0" xmlns="http://www.w3.org/2000/svg"
 width="965.000000pt" height="965.000000pt" viewBox="0 0 965.000000 965.000000"
 preserveAspectRatio="xMidYMid meet">
<metadata>
Created by potrace 1.11, written by Peter Selinger 2001-2013
</metadata>
<g transform="translate(0.000000,965.000000) scale(0.100000,-0.100000)"
fill="#000000" stroke="none">
<path d="M4558 9645 c-1 -1 -49 -6 -105 -9 -56 -4 -112 -9 -125 -11 -13 -2
-50 -7 -83 -10 -80 -9 -92 -11 -145 -19 -25 -4 -58 -10 -75 -12 -88 -13 -252
-48 -378 -80 -750 -188 -1431 -548 -2022 -1068 -168 -147 -469 -463 -560 -586
-11 -15 -54 -72 -96 -126 -359 -467 -651 -1066 -805 -1652 -20 -73 -37 -141
-39 -151 -2 -10 -13 -63 -25 -117 -12 -55 -23 -111 -25 -126 -2 -15 -8 -53
-14 -85 -14 -81 -19 -120 -26 -189 -4 -32 -8 -70 -10 -82 -19 -115 -27 -686
-12 -867 14 -172 28 -284 57 -455 6 -36 13 -78 16 -95 3 -16 9 -43 14 -60 5
-16 11 -43 13 -60 10 -70 71 -292 125 -460 231 -711 630 -1362 1162 -1895 178
-178 257 -250 383 -350 11 -8 24 -20 31 -25 67 -62 518 -375 540 -375 2 0 33
-17 68 -39 149 -91 464 -242 658 -316 257 -98 496 -168 790 -231 93 -20 297
-51 390 -60 36 -3 68 -8 71 -10 3 -1 59 -7 125 -11 217 -15 761 -7 862 11 9 2
46 7 82 11 121 13 135 15 250 36 63 12 126 23 140 26 472 85 1091 327 1528
597 45 28 90 56 100 61 32 18 207 138 251 172 104 78 227 176 262 207 24 21
64 55 88 75 63 51 335 322 413 411 303 345 537 694 732 1093 35 73 76 161 91
197 14 36 32 79 40 95 112 253 237 697 290 1030 23 145 23 145 30 205 4 30 8
71 11 90 26 218 26 749 0 985 -2 17 -7 57 -10 91 -4 33 -8 71 -11 85 -2 13
-13 78 -24 144 -36 211 -65 338 -127 552 -40 136 -110 344 -134 398 -5 11 -30
70 -56 130 -257 610 -673 1204 -1149 1638 -202 184 -270 240 -450 372 -284
207 -646 414 -925 529 -36 15 -78 33 -95 41 -55 24 -299 112 -385 138 -187 58
-399 110 -555 137 -33 5 -71 12 -85 15 -35 7 -232 33 -305 40 -33 3 -78 8
-100 11 -44 6 -651 14 -657 9z"/>
</g>
</svg>
