<?xml version="1.0" encoding="UTF-8"?>
<svg width="11px" height="11px" viewBox="0 0 11 11" version="1.1" xmlns="http://www.w3.org/2000/svg" xmlns:xlink="http://www.w3.org/1999/xlink">
    <!-- Generator: Sketch 43.2 (39069) - http://www.bohemiancoding.com/sketch -->
    <title></title>
    <desc>Created with Sketch.</desc>
    <defs></defs>
    <g id="Page-1" stroke="none" stroke-width="1" fill="none" fill-rule="evenodd">
        <path d="M10.6071429,8.53571429 C10.6071429,8.77381071 10.5238104,8.97618964 10.3571429,9.14285714 L9.14285714,10.3571429 C8.97618964,10.5238104 8.77381071,10.6071429 8.53571429,10.6071429 C8.29761786,10.6071429 8.09523893,10.5238104 7.92857143,10.3571429 L5.30357143,7.73214286 L2.67857143,10.3571429 C2.51190393,10.5238104 2.309525,10.6071429 2.07142857,10.6071429 C1.83333214,10.6071429 1.63095321,10.5238104 1.46428571,10.3571429 L0.25,9.14285714 C0.0833325,8.97618964 0,8.77381071 0,8.53571429 C0,8.29761786 0.0833325,8.09523893 0.25,7.92857143 L2.875,5.30357143 L0.25,2.67857143 C0.0833325,2.51190393 0,2.309525 0,2.07142857 C0,1.83333214 0.0833325,1.63095321 0.25,1.46428571 L1.46428571,0.25 C1.63095321,0.0833325 1.83333214,0 2.07142857,0 C2.309525,0 2.51190393,0.0833325 2.67857143,0.25 L5.30357143,2.875 L7.92857143,0.25 C8.09523893,0.0833325 8.29761786,0 8.53571429,0 C8.77381071,0 8.97618964,0.0833325 9.14285714,0.25 L10.3571429,1.46428571 C10.5238104,1.63095321 10.6071429,1.83333214 10.6071429,2.07142857 C10.6071429,2.309525 10.5238104,2.51190393 10.3571429,2.67857143 L7.73214286,5.30357143 L10.3571429,7.92857143 C10.5238104,8.09523893 10.6071429,8.29761786 10.6071429,8.53571429 Z" id="" fill="#000000"></path>
    </g>
</svg>