<?xml version="1.0" encoding="UTF-8"?>
<svg width="16px" height="14px" viewBox="0 0 16 14" version="1.1" xmlns="http://www.w3.org/2000/svg" xmlns:xlink="http://www.w3.org/1999/xlink">
    <!-- Generator: Sketch 45 (43475) - http://www.bohemiancoding.com/sketch -->
    <title>contact</title>
    <desc>Created with Sketch.</desc>
    <defs></defs>
    <g id="Page-1" stroke="none" stroke-width="1" fill="none" fill-rule="evenodd">
        <g id="Artboard" transform="translate(-58.000000, -40.000000)" fill="#FFFFFF">
            <path d="M74,44.625 L74,51.7142857 C74,52.1071448 73.8601204,52.443451 73.5803571,52.7232143 C73.3005938,53.0029776 72.9642877,53.1428571 72.5714286,53.1428571 L59.4285714,53.1428571 C59.0357123,53.1428571 58.6994062,53.0029776 58.4196429,52.7232143 C58.1398796,52.443451 58,52.1071448 58,51.7142857 L58,44.625 C58.2619061,44.9166681 58.5624983,45.1755941 58.9017857,45.4017857 C61.0565584,46.8660787 62.5357103,47.8928542 63.3392857,48.4821429 C63.6785731,48.7321441 63.953868,48.9270826 64.1651786,49.0669643 C64.3764892,49.2068459 64.6577363,49.3497017 65.0089286,49.4955357 C65.3601208,49.6413698 65.6874985,49.7142857 65.9910714,49.7142857 L66.0089286,49.7142857 C66.3125015,49.7142857 66.6398792,49.6413698 66.9910714,49.4955357 C67.3422637,49.3497017 67.6235108,49.2068459 67.8348214,49.0669643 C68.046132,48.9270826 68.3214269,48.7321441 68.6607143,48.4821429 C69.6726241,47.7499963 71.1547521,46.7232209 73.1071429,45.4017857 C73.4464303,45.1696417 73.7440463,44.9107157 74,44.625 Z M74,42 C74,42.4702404 73.8541681,42.9196407 73.5625,43.3482143 C73.2708319,43.7767879 72.9077403,44.1428556 72.4732143,44.4464286 C70.2351079,46.0000078 68.8422646,46.96726 68.2946429,47.3482143 C68.2351187,47.3898812 68.1086319,47.4806541 67.9151786,47.6205357 C67.7217252,47.7604174 67.5610125,47.8735115 67.4330357,47.9598214 C67.3050589,48.0461314 67.1502985,48.1428566 66.96875,48.25 C66.7872015,48.3571434 66.6160722,48.4374997 66.4553571,48.4910714 C66.2946421,48.5446431 66.145834,48.5714286 66.0089286,48.5714286 L65.9910714,48.5714286 C65.854166,48.5714286 65.7053579,48.5446431 65.5446429,48.4910714 C65.3839278,48.4374997 65.2127985,48.3571434 65.03125,48.25 C64.8497015,48.1428566 64.6949411,48.0461314 64.5669643,47.9598214 C64.4389875,47.8735115 64.2782748,47.7604174 64.0848214,47.6205357 C63.8913681,47.4806541 63.7648813,47.3898812 63.7053571,47.3482143 C63.1636878,46.96726 62.3839337,46.4241107 61.3660714,45.71875 C60.3482092,45.0133893 59.7380962,44.5892864 59.5357143,44.4464286 C59.1666648,44.1964273 58.818454,43.8526808 58.4910714,43.4151786 C58.1636888,42.9776764 58,42.5714304 58,42.1964286 C58,41.7321405 58.1235107,41.3452396 58.3705357,41.0357143 C58.6175608,40.7261889 58.9702358,40.5714286 59.4285714,40.5714286 L72.5714286,40.5714286 C72.9583353,40.5714286 73.2931533,40.7113081 73.5758929,40.9910714 C73.8586324,41.2708347 74,41.6071409 74,42 Z" id="contact"></path>
        </g>
    </g>
</svg>