<?xml version="1.0" encoding="UTF-8"?>
<svg width="16px" height="14px" viewBox="0 0 16 14" version="1.1" xmlns="http://www.w3.org/2000/svg" xmlns:xlink="http://www.w3.org/1999/xlink">
    <!-- Generator: Sketch 43.2 (39069) - http://www.bohemiancoding.com/sketch -->
    <title>contact</title>
    <desc>Created with Sketch.</desc>
    <defs></defs>
    <g id="Page-1" stroke="none" stroke-width="1" fill="none" fill-rule="evenodd">
        <g id="Artboard" transform="translate(-58.000000, -24.000000)" fill="#FFFFFF">
            <path d="M72.8571429,35.7142857 L72.8571429,28.8571429 C72.6666657,29.0714296 72.4613106,29.2678563 72.2410714,29.4464286 C70.6458254,30.6726252 69.3779809,31.6785675 68.4375,32.4642857 C68.1339271,32.7202394 67.8869057,32.9196421 67.6964286,33.0625 C67.5059514,33.2053579 67.2485135,33.3497017 66.9241071,33.4955357 C66.5997008,33.6413698 66.2946443,33.7142857 66.0089286,33.7142857 L65.9910714,33.7142857 C65.7053557,33.7142857 65.4002992,33.6413698 65.0758929,33.4955357 C64.7514865,33.3497017 64.4940486,33.2053579 64.3035714,33.0625 C64.1130943,32.9196421 63.8660729,32.7202394 63.5625,32.4642857 C62.6220191,31.6785675 61.3541746,30.6726252 59.7589286,29.4464286 C59.5386894,29.2678563 59.3333343,29.0714296 59.1428571,28.8571429 L59.1428571,35.7142857 C59.1428571,35.7916671 59.1711307,35.8586307 59.2276786,35.9151786 C59.2842265,35.9717265 59.3511901,36 59.4285714,36 L72.5714286,36 C72.6488099,36 72.7157735,35.9717265 72.7723214,35.9151786 C72.8288693,35.8586307 72.8571429,35.7916671 72.8571429,35.7142857 Z M72.8571429,26.3303571 L72.8571429,26.1116071 C72.8571429,26.0848213 72.8556548,26.0461312 72.8526786,25.9955357 C72.8497024,25.9449402 72.8407739,25.9077382 72.8258929,25.8839286 C72.8110118,25.8601189 72.7946429,25.8333335 72.7767857,25.8035714 C72.7589285,25.7738094 72.732143,25.7514882 72.6964286,25.7366071 C72.6607141,25.7217261 72.6190479,25.7142857 72.5714286,25.7142857 L59.4285714,25.7142857 C59.3511901,25.7142857 59.2842265,25.7425592 59.2276786,25.7991071 C59.1711307,25.855655 59.1428571,25.9226187 59.1428571,26 C59.1428571,27.000005 59.5803528,27.8452346 60.4553571,28.5357143 C61.6041724,29.4404807 62.7976129,30.3839237 64.0357143,31.3660714 C64.0714287,31.3958335 64.1755944,31.4836302 64.3482143,31.6294643 C64.5208342,31.7752983 64.6577376,31.8869044 64.7589286,31.9642857 C64.8601196,32.0416671 64.9925587,32.1354161 65.15625,32.2455357 C65.3199413,32.3556553 65.4702374,32.4374997 65.6071429,32.4910714 C65.7440483,32.5446431 65.8720232,32.5714286 65.9910714,32.5714286 L66.0089286,32.5714286 C66.1279768,32.5714286 66.2559517,32.5446431 66.3928571,32.4910714 C66.5297626,32.4374997 66.6800587,32.3556553 66.84375,32.2455357 C67.0074413,32.1354161 67.1398804,32.0416671 67.2410714,31.9642857 C67.3422624,31.8869044 67.4791658,31.7752983 67.6517857,31.6294643 C67.8244056,31.4836302 67.9285713,31.3958335 67.9642857,31.3660714 C69.2023871,30.3839237 70.3958276,29.4404807 71.5446429,28.5357143 C71.866073,28.2797606 72.1651772,27.9360141 72.4419643,27.5044643 C72.7187514,27.0729145 72.8571429,26.6815494 72.8571429,26.3303571 Z M74,26 L74,35.7142857 C74,36.1071448 73.8601204,36.443451 73.5803571,36.7232143 C73.3005938,37.0029776 72.9642877,37.1428571 72.5714286,37.1428571 L59.4285714,37.1428571 C59.0357123,37.1428571 58.6994062,37.0029776 58.4196429,36.7232143 C58.1398796,36.443451 58,36.1071448 58,35.7142857 L58,26 C58,25.6071409 58.1398796,25.2708347 58.4196429,24.9910714 C58.6994062,24.7113081 59.0357123,24.5714286 59.4285714,24.5714286 L72.5714286,24.5714286 C72.9642877,24.5714286 73.3005938,24.7113081 73.5803571,24.9910714 C73.8601204,25.2708347 74,25.6071409 74,26 Z" id="contact"></path>
        </g>
    </g>
</svg>