<?xml version="1.0" encoding="UTF-8"?>
<svg width="15px" height="15px" viewBox="0 0 15 15" version="1.1" xmlns="http://www.w3.org/2000/svg" xmlns:xlink="http://www.w3.org/1999/xlink">
    <!-- Generator: Sketch 45 (43475) - http://www.bohemiancoding.com/sketch -->
    <title>facebook</title>
    <desc>Created with Sketch.</desc>
    <defs></defs>
    <g id="Page-1" stroke="none" stroke-width="1" fill="none" fill-rule="evenodd">
        <g id="Artboard" transform="translate(-93.000000, -23.000000)" fill="#FFFFFF">
            <path d="M107.169922,23 C107.397788,23 107.593098,23.0813794 107.755859,23.2441406 C107.918621,23.4069019 108,23.6022124 108,23.8300781 L108,37.1699219 C108,37.3977876 107.918621,37.5930981 107.755859,37.7558594 C107.593098,37.9186206 107.397788,38 107.169922,38 L103.351562,38 L103.351562,32.1894531 L105.294922,32.1894531 L105.587891,29.9238281 L103.351562,29.9238281 L103.351562,28.4785156 C103.351562,28.1139305 103.428059,27.8404957 103.581055,27.6582031 C103.73405,27.4759105 104.031899,27.3847656 104.474609,27.3847656 L105.666016,27.375 L105.666016,25.3535156 C105.255857,25.2949216 104.676436,25.265625 103.927734,25.265625 C103.042313,25.265625 102.334313,25.5260391 101.803711,26.046875 C101.273109,26.5677109 101.007812,27.3033807 101.007812,28.2539062 L101.007812,29.9238281 L99.0546875,29.9238281 L99.0546875,32.1894531 L101.007812,32.1894531 L101.007812,38 L93.8300781,38 C93.6022124,38 93.4069019,37.9186206 93.2441406,37.7558594 C93.0813794,37.5930981 93,37.3977876 93,37.1699219 L93,23.8300781 C93,23.6022124 93.0813794,23.4069019 93.2441406,23.2441406 C93.4069019,23.0813794 93.6022124,23 93.8300781,23 L107.169922,23 Z" id="facebook"></path>
        </g>
    </g>
</svg>