<?xml version="1.0" encoding="UTF-8"?>
<svg width="8px" height="16px" viewBox="0 0 8 16" version="1.1" xmlns="http://www.w3.org/2000/svg" xmlns:xlink="http://www.w3.org/1999/xlink">
    <!-- Generator: Sketch 43.2 (39069) - http://www.bohemiancoding.com/sketch -->
    <title>facebook</title>
    <desc>Created with Sketch.</desc>
    <defs></defs>
    <g id="Page-1" stroke="none" stroke-width="1" fill="none" fill-rule="evenodd">
        <g id="Artboard" transform="translate(-95.000000, -22.000000)" fill="#FFFFFF">
            <path d="M102.991071,22.3928571 L102.991071,24.75 L101.589286,24.75 C101.077378,24.75 100.732144,24.8571418 100.553571,25.0714286 C100.374999,25.2857154 100.285714,25.6071407 100.285714,26.0357143 L100.285714,27.7232143 L102.901786,27.7232143 L102.553571,30.3660714 L100.285714,30.3660714 L100.285714,37.1428571 L97.5535714,37.1428571 L97.5535714,30.3660714 L95.2767857,30.3660714 L95.2767857,27.7232143 L97.5535714,27.7232143 L97.5535714,25.7767857 C97.5535714,24.6696373 97.8630921,23.811015 98.4821429,23.2008929 C99.1011936,22.5907708 99.9255901,22.2857143 100.955357,22.2857143 C101.830362,22.2857143 102.508926,22.3214282 102.991071,22.3928571 Z" id="facebook"></path>
        </g>
    </g>
</svg>