<?xml version="1.0" encoding="UTF-8"?>
<svg width="14px" height="15px" viewBox="0 0 14 15" version="1.1" xmlns="http://www.w3.org/2000/svg" xmlns:xlink="http://www.w3.org/1999/xlink">
    <!-- Generator: Sketch 43.2 (39069) - http://www.bohemiancoding.com/sketch -->
    <title>instagram</title>
    <desc>Created with Sketch.</desc>
    <defs></defs>
    <g id="Page-1" stroke="none" stroke-width="1" fill="none" fill-rule="evenodd">
        <g id="Artboard" transform="translate(-24.000000, -23.000000)" fill="#FFFFFF">
            <path d="M33.2857143,30.2857143 C33.2857143,29.6547587 33.0625022,29.1160737 32.6160714,28.6696429 C32.1696406,28.2232121 31.6309555,28 31,28 C30.3690445,28 29.8303594,28.2232121 29.3839286,28.6696429 C28.9374978,29.1160737 28.7142857,29.6547587 28.7142857,30.2857143 C28.7142857,30.9166698 28.9374978,31.4553549 29.3839286,31.9017857 C29.8303594,32.3482165 30.3690445,32.5714286 31,32.5714286 C31.6309555,32.5714286 32.1696406,32.3482165 32.6160714,31.9017857 C33.0625022,31.4553549 33.2857143,30.9166698 33.2857143,30.2857143 Z M34.5178571,30.2857143 C34.5178571,31.2619096 34.1755987,32.0922585 33.4910714,32.7767857 C32.8065442,33.4613129 31.9761954,33.8035714 31,33.8035714 C30.0238046,33.8035714 29.1934558,33.4613129 28.5089286,32.7767857 C27.8244013,32.0922585 27.4821429,31.2619096 27.4821429,30.2857143 C27.4821429,29.3095189 27.8244013,28.4791701 28.5089286,27.7946429 C29.1934558,27.1101156 30.0238046,26.7678571 31,26.7678571 C31.9761954,26.7678571 32.8065442,27.1101156 33.4910714,27.7946429 C34.1755987,28.4791701 34.5178571,29.3095189 34.5178571,30.2857143 Z M35.4821429,26.625 C35.4821429,26.8511916 35.4017865,27.0446421 35.2410714,27.2053571 C35.0803563,27.3660722 34.8869059,27.4464286 34.6607143,27.4464286 C34.4345227,27.4464286 34.2410722,27.3660722 34.0803571,27.2053571 C33.9196421,27.0446421 33.8392857,26.8511916 33.8392857,26.625 C33.8392857,26.3988084 33.9196421,26.2053579 34.0803571,26.0446429 C34.2410722,25.8839278 34.4345227,25.8035714 34.6607143,25.8035714 C34.8869059,25.8035714 35.0803563,25.8839278 35.2410714,26.0446429 C35.4017865,26.2053579 35.4821429,26.3988084 35.4821429,26.625 Z M31,24.6607143 C30.9583331,24.6607143 30.7306568,24.6592262 30.3169643,24.65625 C29.9032717,24.6532738 29.5892868,24.6532738 29.375,24.65625 C29.1607132,24.6592262 28.8735137,24.6681547 28.5133929,24.6830357 C28.153272,24.6979167 27.8467275,24.7276783 27.59375,24.7723214 C27.3407725,24.8169645 27.1279771,24.8720235 26.9553571,24.9375 C26.6577366,25.0565482 26.3958345,25.2291655 26.1696429,25.4553571 C25.9434512,25.6815487 25.7708339,25.9434509 25.6517857,26.2410714 C25.5863092,26.4136913 25.5312502,26.6264868 25.4866071,26.8794643 C25.4419641,27.1324417 25.4122025,27.4389863 25.3973214,27.7991071 C25.3824404,28.159228 25.3735119,28.4464275 25.3705357,28.6607143 C25.3675595,28.8750011 25.3675595,29.188986 25.3705357,29.6026786 C25.3735119,30.0163711 25.375,30.2440474 25.375,30.2857143 C25.375,30.3273812 25.3735119,30.5550575 25.3705357,30.96875 C25.3675595,31.3824425 25.3675595,31.6964275 25.3705357,31.9107143 C25.3735119,32.1250011 25.3824404,32.4122006 25.3973214,32.7723214 C25.4122025,33.1324423 25.4419641,33.4389868 25.4866071,33.6919643 C25.5312502,33.9449417 25.5863092,34.1577372 25.6517857,34.3303571 C25.7708339,34.6279777 25.9434512,34.8898798 26.1696429,35.1160714 C26.3958345,35.342263 26.6577366,35.5148804 26.9553571,35.6339286 C27.1279771,35.6994051 27.3407725,35.7544641 27.59375,35.7991071 C27.8467275,35.8437502 28.153272,35.8735118 28.5133929,35.8883929 C28.8735137,35.9032739 29.1607132,35.9122024 29.375,35.9151786 C29.5892868,35.9181548 29.9032717,35.9181548 30.3169643,35.9151786 C30.7306568,35.9122024 30.9583331,35.9107143 31,35.9107143 C31.0416669,35.9107143 31.2693432,35.9122024 31.6830357,35.9151786 C32.0967283,35.9181548 32.4107132,35.9181548 32.625,35.9151786 C32.8392868,35.9122024 33.1264863,35.9032739 33.4866071,35.8883929 C33.846728,35.8735118 34.1532725,35.8437502 34.40625,35.7991071 C34.6592275,35.7544641 34.8720229,35.6994051 35.0446429,35.6339286 C35.3422634,35.5148804 35.6041655,35.342263 35.8303571,35.1160714 C36.0565488,34.8898798 36.2291661,34.6279777 36.3482143,34.3303571 C36.4136908,34.1577372 36.4687498,33.9449417 36.5133929,33.6919643 C36.5580359,33.4389868 36.5877975,33.1324423 36.6026786,32.7723214 C36.6175596,32.4122006 36.6264881,32.1250011 36.6294643,31.9107143 C36.6324405,31.6964275 36.6324405,31.3824425 36.6294643,30.96875 C36.6264881,30.5550575 36.625,30.3273812 36.625,30.2857143 C36.625,30.2440474 36.6264881,30.0163711 36.6294643,29.6026786 C36.6324405,29.188986 36.6324405,28.8750011 36.6294643,28.6607143 C36.6264881,28.4464275 36.6175596,28.159228 36.6026786,27.7991071 C36.5877975,27.4389863 36.5580359,27.1324417 36.5133929,26.8794643 C36.4687498,26.6264868 36.4136908,26.4136913 36.3482143,26.2410714 C36.2291661,25.9434509 36.0565488,25.6815487 35.8303571,25.4553571 C35.6041655,25.2291655 35.3422634,25.0565482 35.0446429,24.9375 C34.8720229,24.8720235 34.6592275,24.8169645 34.40625,24.7723214 C34.1532725,24.7276783 33.846728,24.6979167 33.4866071,24.6830357 C33.1264863,24.6681547 32.8392868,24.6592262 32.625,24.65625 C32.4107132,24.6532738 32.0967283,24.6532738 31.6830357,24.65625 C31.2693432,24.6592262 31.0416669,24.6607143 31,24.6607143 Z M37.8571429,30.2857143 C37.8571429,31.6488163 37.8422621,32.5922593 37.8125,33.1160714 C37.7529759,34.3541729 37.383932,35.3124966 36.7053571,35.9910714 C36.0267823,36.6696463 35.0684586,37.0386902 33.8303571,37.0982143 C33.306545,37.1279763 32.3631021,37.1428571 31,37.1428571 C29.6368979,37.1428571 28.693455,37.1279763 28.1696429,37.0982143 C26.9315414,37.0386902 25.9732177,36.6696463 25.2946429,35.9910714 C24.616068,35.3124966 24.2470241,34.3541729 24.1875,33.1160714 C24.1577379,32.5922593 24.1428571,31.6488163 24.1428571,30.2857143 C24.1428571,28.9226122 24.1577379,27.9791693 24.1875,27.4553571 C24.2470241,26.2172557 24.616068,25.258932 25.2946429,24.5803571 C25.9732177,23.9017823 26.9315414,23.5327384 28.1696429,23.4732143 C28.693455,23.4434522 29.6368979,23.4285714 31,23.4285714 C32.3631021,23.4285714 33.306545,23.4434522 33.8303571,23.4732143 C35.0684586,23.5327384 36.0267823,23.9017823 36.7053571,24.5803571 C37.383932,25.258932 37.7529759,26.2172557 37.8125,27.4553571 C37.8422621,27.9791693 37.8571429,28.9226122 37.8571429,30.2857143 Z" id="instagram"></path>
        </g>
    </g>
</svg>