<?xml version="1.0" encoding="UTF-8"?>
<svg xmlns="http://www.w3.org/2000/svg" xmlns:xlink="http://www.w3.org/1999/xlink" version="1.2" >
<font id="Bodoni BE Italic">
<font-face  font-family="Bodoni BE" units-per-em="1000" ascent="750" descent="-250" font-style="italic" font-weight="400" font-stretch="normal" slope="-13" cap-height="750" x-height="500" underline-position="-75" underline-thickness="50" />
<missing-glyph  horiz-adv-x="271" d="" />
<glyph glyph-name="NULL" d="" />
<glyph glyph-name="CR" unicode="&#xd;" horiz-adv-x="250" d="" />
<glyph glyph-name="space" unicode="&#x20;" horiz-adv-x="271" d="" />
<glyph glyph-name="exclam" unicode="&#x21;" horiz-adv-x="271" d="M295 581 C305 605 319 639 319 661 C319 691 296 712 262 712 C247 712 226 707 213 689 C201 672 199 655 193 592 L188 531 C183 482 179 443 172 390 C155 259 153 244 147 222 L172 222 C213 359 255 472 278 533 L295 581 Z M63 54 C63 21 90 -6 123 -6 C156 -6 183 21 183 54 C183 87 156 114 123 114 C90 114 63 87 63 54 L63 54 Z " />
<glyph glyph-name="quotedbl" unicode="&#x22;" horiz-adv-x="396" d="M318 452 L335 452 L367 706 C369 749 334 749 330 749 C310 749 293 736 290 715 C289 711 289 707 290 693 L318 452 Z M152 452 L169 452 L200 706 C202 749 167 749 163 749 C143 749 126 736 123 715 C123 711 122 707 124 693 L152 452 Z " />
<glyph glyph-name="numbersign" unicode="&#x23;" horiz-adv-x="667" d="M628 263 L628 303 L456 303 L472 415 L650 415 L650 456 L479 456 L513 704 L471 704 L435 456 L320 456 L355 704 L311 704 L276 456 L102 456 L102 415 L271 415 L255 303 L79 303 L79 263 L250 263 L212 0 L255 0 L293 263 L410 263 L372 0 L412 0 L451 263 L628 263 Z M314 415 L431 415 L415 303 L299 303 L314 415 Z " />
<glyph glyph-name="dollar" unicode="&#x24;" horiz-adv-x="521" d="M410 786 L377 786 L357 696 C186 700 111 606 111 510 C111 459 136 412 171 376 C191 356 211 340 258 306 L269 298 L207 13 C173 19 109 31 109 84 C109 97 112 104 118 116 C123 126 129 138 129 152 C129 179 107 201 81 201 C54 201 23 177 23 133 C23 54 117 -4 202 -10 L180 -110 L211 -110 L233 -13 C286 -12 371 -11 437 47 C472 78 497 123 497 178 C497 278 423 334 352 389 L326 408 L383 667 C407 663 461 647 461 600 C461 591 459 583 456 576 C452 564 450 559 450 548 C450 518 470 504 489 504 C523 504 533 539 533 558 C533 600 495 677 389 693 L410 786 Z M298 428 L275 445 C246 467 197 505 197 561 C197 639 285 675 351 671 L298 428 Z M297 279 L314 267 C350 241 409 199 409 136 C409 52 320 5 238 10 L297 279 Z " />
<glyph glyph-name="percent" unicode="&#x25;" horiz-adv-x="833" d="M368 414 C379 451 387 496 387 531 C387 615 346 691 276 691 C185 691 78 546 78 394 C78 300 122 234 192 234 C260 234 333 307 368 414 L368 414 Z M302 454 C290 401 269 313 242 280 C231 267 214 253 191 253 C185 253 139 253 139 320 C139 369 163 482 184 552 C204 620 227 672 276 672 C327 672 327 621 327 606 C327 566 313 504 302 454 L302 454 Z M796 173 C807 210 815 255 815 289 C815 374 774 449 704 449 C613 449 506 304 506 152 C506 59 550 -7 620 -7 C688 -7 762 67 796 173 L796 173 Z M730 213 C718 160 697 72 670 39 C659 25 642 12 619 12 C613 12 567 12 567 79 C567 128 591 241 612 311 C632 379 655 430 704 430 C755 430 755 380 755 364 C755 325 741 263 730 213 L730 213 Z M287 1 L326 1 L604 684 L563 684 L287 1 Z " />
<glyph glyph-name="ampersand" unicode="&#x26;" horiz-adv-x="771" d="M560 274 C535 233 521 210 487 161 C451 240 407 354 382 428 C439 447 506 484 536 513 C567 542 581 576 581 606 C581 661 532 715 441 715 C343 715 256 659 256 530 C256 510 261 445 275 407 C209 383 36 320 36 167 C36 65 121 -12 248 -12 C335 -12 378 20 431 59 C440 50 496 -10 578 -10 C681 -10 734 71 754 103 L737 113 C719 88 674 25 617 25 C552 25 508 120 500 139 C534 187 560 229 584 269 L611 312 C629 343 653 384 670 384 C678 384 681 376 681 372 C681 368 678 353 678 350 C678 318 704 311 718 311 C750 311 764 339 764 363 C764 368 763 420 705 420 C647 420 615 368 580 310 L560 274 Z M376 446 C357 496 342 564 342 600 C342 672 390 696 431 696 C471 696 506 673 506 616 C506 509 405 460 376 446 L376 446 Z M280 387 C303 310 340 212 368 156 C387 119 403 94 415 78 C389 57 339 19 278 19 C196 19 151 90 151 178 C151 206 156 293 223 349 C233 357 244 366 280 387 L280 387 Z " />
<glyph glyph-name="quotesingle" unicode="&#x27;" horiz-adv-x="208" d="M146 452 L163 452 L195 706 C197 749 162 749 158 749 C138 749 120 736 118 715 C117 711 117 707 118 693 L146 452 Z " />
<glyph glyph-name="parenleft" unicode="&#x28;" horiz-adv-x="396" d="M499 795 C497 795 280 661 178 457 C134 369 108 259 108 170 C108 10 172 -140 264 -271 L293 -271 C259 -210 204 -112 204 70 C204 259 275 451 343 571 C412 691 486 757 532 795 L499 795 Z " />
<glyph glyph-name="parenright" unicode="&#x29;" horiz-adv-x="396" d="M-77 -271 C-76 -271 142 -138 244 67 C288 156 314 266 314 354 C314 468 281 578 229 679 C200 734 174 772 158 795 L129 795 C163 734 218 636 218 454 C218 270 150 79 79 -47 C17 -154 -48 -220 -110 -271 L-77 -271 Z " />
<glyph glyph-name="asterisk" unicode="&#x2a;" horiz-adv-x="375" d="M272 555 L306 630 C318 655 327 675 327 689 C327 703 316 718 294 718 C259 718 260 682 261 643 L261 561 L219 619 C193 657 180 674 160 674 C143 674 127 661 127 642 C127 619 150 606 189 585 L250 552 L184 545 C122 540 96 537 96 506 C96 485 112 471 129 471 C141 471 141 471 197 504 L255 539 L225 474 C217 457 200 421 200 407 C200 377 234 377 235 377 C257 377 264 396 265 399 C269 409 269 413 268 458 L267 536 L313 470 C335 436 348 417 369 417 C387 417 401 435 401 451 C401 469 393 474 343 506 L280 544 L364 551 C403 554 432 556 432 590 C432 605 420 621 401 621 C389 621 383 618 346 597 L272 555 Z " />
<glyph glyph-name="plus" unicode="&#x2b;" horiz-adv-x="667" d="M641 269 L641 313 L372 313 L372 583 L328 583 L328 313 L60 313 L60 269 L328 269 L328 0 L372 0 L372 269 L641 269 Z " />
<glyph glyph-name="comma" unicode="&#x2c;" horiz-adv-x="229" d="M25 -154 C98 -121 176 -58 176 22 C176 68 145 111 94 111 C58 111 27 88 27 50 C27 17 50 -6 81 -6 C104 -6 114 6 121 14 C123 17 125 19 129 19 C135 19 140 13 140 3 C140 -6 136 -23 122 -44 C94 -88 50 -113 12 -134 L25 -154 Z " />
<glyph glyph-name="hyphen" unicode="&#x2d;" horiz-adv-x="313" d="M27 244 L301 244 L317 315 L43 315 L27 244 Z " />
<glyph glyph-name="period" unicode="&#x2e;" horiz-adv-x="229" d="M43 55 C43 21 70 -6 104 -6 C138 -6 165 21 165 55 C165 89 138 116 104 116 C70 116 43 89 43 55 L43 55 Z " />
<glyph glyph-name="slash" unicode="&#x2f;" horiz-adv-x="313" d="M15 0 L77 0 L370 706 L306 706 L15 0 Z " />
<glyph glyph-name="zero" unicode="0" horiz-adv-x="521" d="M498 267 C516 324 528 394 528 448 C528 581 464 695 360 695 C244 695 131 549 86 421 C68 367 53 292 53 234 C53 86 123 -12 228 -12 C331 -12 444 101 498 267 L498 267 Z M404 328 C385 243 352 106 309 53 C295 34 266 8 225 8 C202 8 172 16 154 52 C142 75 140 101 140 118 C140 198 179 378 210 483 C242 591 279 674 358 674 C443 674 443 591 443 565 C443 522 436 488 428 443 C420 405 413 366 404 328 L404 328 Z " />
<glyph glyph-name="one" unicode="1" horiz-adv-x="521" d="M194 658 L271 658 C285 657 317 656 317 624 C317 618 316 612 313 598 L187 21 L74 21 L69 0 L410 0 L415 21 L287 21 L383 470 C392 509 401 548 409 588 C419 639 424 663 434 694 C343 680 245 678 199 678 L194 658 Z " />
<glyph glyph-name="two" unicode="2" horiz-adv-x="521" d="M455 172 C453 162 444 112 415 96 C398 86 376 85 343 84 L93 84 L215 188 C275 238 322 278 386 340 C455 409 504 468 504 545 C504 654 407 695 323 695 C205 695 120 617 120 531 C120 490 142 449 185 449 C223 449 234 481 234 498 C234 521 215 545 189 545 C180 545 162 552 162 572 C162 614 226 666 297 666 C352 666 378 632 389 602 C392 594 397 577 397 548 C397 394 244 255 106 137 L16 57 L16 0 L440 0 L478 172 L455 172 Z " />
<glyph glyph-name="three" unicode="3" horiz-adv-x="521" d="M273 368 L296 375 C439 422 478 499 478 560 C478 647 405 694 313 694 C203 694 135 632 135 578 C135 555 150 530 181 530 C206 530 226 549 226 575 C226 590 221 598 214 605 C202 619 202 620 202 626 C202 645 235 673 290 673 C359 673 378 619 378 570 C378 487 321 376 219 376 C212 376 183 378 177 378 C166 378 153 375 153 361 C153 353 159 346 170 346 C175 346 196 352 201 353 C208 354 224 357 238 357 C283 357 325 336 339 282 C343 265 344 247 344 230 C344 107 272 10 167 10 C106 10 76 42 76 63 C76 73 82 75 90 79 C99 82 130 94 130 128 C130 154 110 174 83 174 C49 174 27 140 27 105 C27 102 27 -12 175 -12 C332 -12 452 96 452 209 C452 304 372 361 293 367 L273 368 Z " />
<glyph glyph-name="four" unicode="4" horiz-adv-x="521" d="M445 116 L467 116 L503 286 L481 286 L468 228 L373 228 L474 695 L417 695 L27 232 L27 203 L273 203 L233 21 L150 21 L145 0 L408 0 L413 21 L328 21 L368 203 L462 203 L445 116 Z M359 591 L279 228 L56 228 L359 591 Z " />
<glyph glyph-name="five" unicode="5" horiz-adv-x="521" d="M398 601 C426 602 446 604 466 625 C481 641 510 689 523 714 L501 714 C485 690 481 685 448 683 L198 683 L116 358 L141 358 C167 370 202 387 244 387 C326 387 362 322 362 244 C362 201 347 101 288 48 C262 26 225 10 189 10 C142 10 94 37 94 63 C94 73 100 76 111 81 C118 85 148 100 148 131 C148 153 129 176 104 176 C75 176 46 148 46 105 C46 52 91 -12 193 -12 C341 -12 471 112 471 238 C471 338 385 415 266 415 C236 415 197 410 154 392 L206 601 L398 601 Z " />
<glyph glyph-name="six" unicode="6" horiz-adv-x="521" d="M527 725 C432 725 306 675 209 575 C159 524 54 393 54 228 C54 101 122 -12 246 -12 C389 -12 503 132 503 266 C503 356 447 456 336 456 C236 456 186 375 185 373 L190 391 C232 542 338 692 526 703 L527 725 Z M200 355 C217 384 259 435 319 435 C397 435 401 352 401 317 C401 291 398 266 394 241 C365 51 306 7 246 7 C184 7 145 51 145 139 C145 185 161 291 200 355 L200 355 Z " />
<glyph glyph-name="seven" unicode="7" horiz-adv-x="521" d="M124 507 L151 507 L170 598 L469 598 C447 559 429 529 378 449 L303 336 C218 201 161 112 161 48 C161 2 188 -14 214 -14 C228 -14 250 -9 264 18 C272 34 274 49 276 64 L280 98 C300 245 330 314 448 504 L468 535 C498 585 530 639 542 683 L162 683 L124 507 Z " />
<glyph glyph-name="eight" unicode="8" horiz-adv-x="521" d="M331 356 L346 360 C449 387 523 461 523 544 C523 619 461 694 346 694 C214 694 121 605 121 505 C121 472 132 439 150 416 C173 386 203 370 242 360 C207 353 132 338 80 276 C49 239 36 197 36 158 C36 76 89 -12 230 -12 C386 -12 478 97 478 198 C478 296 393 343 348 353 L331 356 Z M428 539 C412 434 373 369 296 369 C255 369 210 390 210 460 C210 501 227 583 252 621 C286 674 335 674 348 674 C401 674 432 645 432 588 C432 583 432 564 428 539 L428 539 Z M370 183 C360 121 342 7 231 7 C202 7 175 17 159 33 C135 57 135 92 135 104 C135 144 157 250 182 291 C203 327 243 348 285 348 C351 348 376 303 376 243 C376 223 373 203 370 183 L370 183 Z " />
<glyph glyph-name="nine" unicode="9" horiz-adv-x="521" d="M57 -47 C111 -41 201 -26 307 53 C478 183 528 373 528 470 C528 587 469 695 341 695 C197 695 74 558 74 409 C74 294 152 223 242 223 C275 223 312 234 340 253 C352 261 368 276 382 289 C310 19 121 -16 56 -28 L57 -47 Z M197 507 C210 556 243 673 342 673 C433 673 433 570 433 549 C433 546 433 361 337 279 C322 266 294 246 256 246 C205 246 172 288 172 350 C172 397 183 456 197 507 L197 507 Z " />
<glyph glyph-name="colon" unicode="&#x3a;" horiz-adv-x="271" d="M136 357 C136 323 163 296 197 296 C231 296 258 323 258 357 C258 391 231 418 197 418 C163 418 136 391 136 357 L136 357 Z M69 55 C69 21 96 -6 130 -6 C164 -6 191 21 191 55 C191 89 164 116 130 116 C96 116 69 89 69 55 L69 55 Z " />
<glyph glyph-name="semicolon" unicode="&#x3b;" horiz-adv-x="271" d="M136 357 C136 323 163 296 197 296 C231 296 258 323 258 357 C258 391 231 418 197 418 C163 418 136 391 136 357 L136 357 Z M66 -154 C139 -121 217 -58 217 22 C217 68 186 111 135 111 C99 111 68 88 68 50 C68 17 91 -6 122 -6 C145 -6 155 6 162 14 C164 17 166 19 170 19 C176 19 181 13 181 3 C181 -6 177 -23 163 -44 C135 -88 91 -113 53 -134 L66 -154 Z " />
<glyph glyph-name="less" unicode="&#x3c;" horiz-adv-x="667" d="M92 355 L713 660 L713 709 L47 384 L47 325 L713 -3 L713 46 L92 355 Z " />
<glyph glyph-name="equal" unicode="&#x3d;" horiz-adv-x="667" d="M27 403 L27 358 L694 358 L694 403 L27 403 Z M27 228 L27 183 L694 183 L694 228 L27 228 Z " />
<glyph glyph-name="greater" unicode="&#x3e;" horiz-adv-x="667" d="M674 384 L8 709 L8 660 L629 355 L8 46 L8 -3 L674 325 L674 384 Z " />
<glyph glyph-name="question" unicode="&#x3f;" horiz-adv-x="437" d="M312 341 C356 365 410 395 442 453 C460 486 469 525 469 556 C469 654 395 718 305 718 C217 718 152 658 152 593 C152 553 181 531 204 531 C226 531 246 551 246 574 C246 596 230 613 209 618 C194 621 190 622 190 630 C190 655 240 696 302 696 C385 696 427 637 427 588 C427 522 367 485 336 466 L300 444 C235 400 201 369 184 276 C178 242 178 229 178 211 L199 212 C201 284 235 303 273 321 L312 341 Z M107 55 C107 21 134 -6 168 -6 C202 -6 229 21 229 55 C229 89 202 116 168 116 C134 116 107 89 107 55 L107 55 Z " />
<glyph glyph-name="at" unicode="&#x40;" horiz-adv-x="896" d="M684 496 L630 496 L616 437 C610 453 604 472 586 490 C564 513 534 523 504 523 C396 523 287 392 287 240 C287 123 352 72 415 72 C455 72 497 94 526 126 C542 143 551 159 559 174 C558 167 557 158 557 151 C557 116 576 69 634 69 C740 69 843 219 843 386 C843 557 725 712 523 712 C267 712 87 469 87 241 C87 36 224 -124 485 -124 C680 -124 788 -31 840 25 L820 49 C774 2 674 -90 491 -90 C263 -90 150 55 150 237 C150 340 187 466 257 551 C320 628 412 679 521 679 C691 679 808 549 808 384 C808 234 714 107 650 107 C623 107 616 130 616 154 C616 179 623 217 657 371 L684 496 Z M595 407 C601 344 555 111 432 111 C415 111 370 117 357 172 C354 183 352 197 352 218 C352 301 387 383 415 426 C426 445 458 493 514 493 C562 493 591 455 595 407 L595 407 Z " />
<glyph glyph-name="A" unicode="A" horiz-adv-x="667" d="M329 21 L325 0 L617 0 L622 21 L533 21 L585 706 L568 706 L52 21 L-21 21 L-26 0 L180 0 L185 21 L85 21 L240 225 L440 225 L421 21 L329 21 Z M471 539 L442 250 L258 250 L471 539 Z " />
<glyph glyph-name="B" unicode="B" horiz-adv-x="646" d="M127 706 L123 685 L214 685 L69 21 L-14 21 L-18 0 L275 0 C390 0 482 2 543 76 C581 120 586 169 586 198 C586 272 548 317 492 346 C472 356 451 363 430 368 L414 371 L429 373 C591 400 629 492 629 555 C629 598 609 666 536 692 C500 705 457 706 414 706 L127 706 Z M409 685 C472 685 520 680 520 603 C520 551 502 468 477 431 C447 386 398 382 338 382 L261 382 L327 685 L409 685 Z M182 21 L255 360 L321 360 C394 358 471 356 471 265 C471 230 455 89 402 47 C371 22 330 21 284 21 L182 21 Z " />
<glyph glyph-name="C" unicode="C" horiz-adv-x="625" d="M566 197 C537 142 513 94 464 54 C439 35 401 10 347 10 C308 10 191 26 191 211 C191 358 265 697 460 697 C523 697 579 652 579 555 C579 544 578 519 576 502 L601 502 L645 702 L621 702 L589 657 C557 701 503 721 448 721 C407 721 340 709 264 651 C127 547 68 375 68 263 C68 68 213 -15 327 -15 C401 -15 457 17 499 45 L523 0 L544 0 L588 197 L566 197 Z " />
<glyph glyph-name="D" unicode="D" horiz-adv-x="688" d="M-20 0 L237 0 C337 0 422 1 510 65 C639 159 680 323 680 426 C680 565 610 636 561 666 C495 706 422 706 359 706 L130 706 L125 685 L216 685 L70 21 L-15 21 L-20 0 Z M384 685 C436 684 498 684 538 626 C563 588 565 544 565 516 C565 450 547 284 488 159 C424 25 344 22 246 21 L183 21 L328 685 L384 685 Z " />
<glyph glyph-name="E" unicode="E" horiz-adv-x="604" d="M374 219 L395 219 L455 499 L436 499 L430 477 C422 449 415 406 368 387 C344 377 319 377 294 377 L259 377 L325 685 L426 685 C491 685 536 685 564 651 C580 631 588 600 588 573 C588 558 586 545 584 529 L605 529 L642 706 L123 706 L119 685 L213 685 L70 21 L-17 21 L-21 0 L524 0 L570 213 L548 213 C536 174 522 127 485 87 C431 27 366 23 286 21 L182 21 L254 355 L299 355 C324 355 386 356 386 294 C386 279 383 260 380 246 L374 219 Z " />
<glyph glyph-name="F" unicode="F" horiz-adv-x="562" d="M413 215 L435 215 L497 498 L476 498 L470 473 C461 438 452 406 411 388 C385 376 362 377 337 377 L261 377 L328 685 L440 685 C515 685 595 681 595 560 C595 543 594 532 591 498 L611 498 L656 706 L129 706 L124 685 L215 685 L71 21 L-15 21 L-19 0 L281 0 L285 21 L183 21 L256 356 L328 356 C365 355 426 355 426 293 C426 276 421 255 418 239 L413 215 Z " />
<glyph glyph-name="G" unicode="G" horiz-adv-x="688" d="M699 264 L405 264 L400 242 L497 242 C475 108 436 7 330 7 C288 7 248 26 225 52 C200 81 187 130 187 195 C187 318 238 555 336 645 C371 678 416 697 459 697 C493 697 560 682 591 618 C603 592 607 564 607 535 C607 525 607 515 606 504 L627 504 L672 706 L648 706 L612 649 C595 669 551 721 452 721 C256 721 69 515 69 290 C69 161 135 -15 334 -15 C522 -15 606 129 627 242 L694 242 L699 264 Z " />
<glyph glyph-name="H" unicode="H" horiz-adv-x="729" d="M378 21 L373 0 L668 0 L673 21 L578 21 L723 685 L809 685 L813 706 L521 706 L517 685 L611 685 L545 385 L262 385 L327 685 L416 685 L421 706 L128 706 L123 685 L215 685 L71 21 L-14 21 L-19 0 L273 0 L278 21 L183 21 L257 359 L540 359 L466 21 L378 21 Z " />
<glyph glyph-name="I" unicode="I" horiz-adv-x="333" d="M413 685 L418 706 L124 706 L119 685 L213 685 L71 21 L-18 21 L-23 0 L274 0 L278 21 L183 21 L326 685 L413 685 Z " />
<glyph glyph-name="J" unicode="J" horiz-adv-x="437" d="M524 706 L255 706 L249 685 L336 685 L201 87 C190 45 177 -13 155 -39 C142 -53 125 -62 110 -62 C103 -62 81 -58 81 -41 C81 -34 84 -31 89 -26 L95 -19 C104 -8 111 3 111 18 C111 40 96 66 66 66 C36 66 10 40 10 6 C10 -36 49 -84 117 -84 C193 -84 249 -32 284 37 C312 92 324 144 336 198 L447 685 L519 685 L524 706 Z " />
<glyph glyph-name="K" unicode="K" horiz-adv-x="667" d="M718 685 L723 706 L500 706 L496 685 L603 685 L272 377 L466 21 L364 21 L364 0 L658 0 L663 21 L587 21 L364 430 L639 685 L718 685 Z M-21 0 L266 0 L271 21 L181 21 L325 685 L412 685 L416 706 L126 706 L122 685 L213 685 L70 21 L-16 21 L-21 0 Z " />
<glyph glyph-name="L" unicode="L" horiz-adv-x="562" d="M526 206 C506 143 478 97 456 71 C416 26 380 21 306 21 L183 21 L327 685 L413 685 L418 706 L125 706 L120 685 L214 685 L70 21 L-14 21 L-20 0 L504 0 L547 206 L526 206 Z " />
<glyph glyph-name="M" unicode="M" horiz-adv-x="792" d="M870 685 L874 706 L653 706 L390 188 L346 706 L124 706 L120 685 L213 685 L71 21 L-12 21 L-17 0 L190 0 L194 21 L97 21 L238 685 L296 0 L323 0 L673 685 L532 21 L446 21 L442 0 L732 0 L736 21 L643 21 L784 685 L870 685 Z " />
<glyph glyph-name="N" unicode="N" horiz-adv-x="667" d="M747 685 L752 706 L559 706 L554 685 L648 685 L543 207 L342 706 L127 706 L123 685 L208 685 L64 21 L-16 21 L-21 0 L183 0 L188 21 L92 21 L234 675 L507 0 L525 0 L676 685 L747 685 Z " />
<glyph glyph-name="O" unicode="O" horiz-adv-x="688" d="M537 91 C645 199 681 326 681 427 C681 605 576 721 440 721 C251 721 69 492 69 282 C69 144 151 -15 314 -15 C400 -15 477 31 537 91 L537 91 Z M537 310 C482 73 405 34 368 19 C350 11 332 7 313 7 C276 7 240 25 218 56 C188 97 186 155 186 188 C186 333 234 476 258 534 C275 575 328 701 442 701 C500 701 528 665 539 648 C562 612 565 568 565 534 C565 448 549 365 537 310 L537 310 Z " />
<glyph glyph-name="P" unicode="P" horiz-adv-x="583" d="M124 685 L215 685 L71 21 L-14 21 L-18 0 L276 0 L281 21 L184 21 L251 327 C275 326 299 326 322 326 C398 326 514 326 590 405 C625 442 647 495 647 547 C647 574 640 662 545 694 C508 706 469 706 433 706 L129 706 L124 685 Z M414 685 C465 685 526 684 526 603 C526 541 503 429 472 392 C435 348 371 347 323 347 C311 347 285 347 256 349 L329 685 L414 685 Z " />
<glyph glyph-name="Q" unicode="Q" horiz-adv-x="688" d="M552 -171 C520 -174 510 -175 496 -175 C466 -175 423 -168 398 -148 C374 -127 361 -92 361 -43 C361 -28 362 -20 364 -9 C530 28 681 220 681 426 C681 571 596 721 443 721 C249 721 70 492 70 283 C70 159 129 33 250 -9 C249 -21 248 -29 248 -41 C248 -117 297 -155 316 -167 C360 -197 416 -204 476 -204 C511 -204 533 -200 552 -196 L552 -171 Z M541 336 C529 278 497 122 420 52 C392 26 351 6 313 6 C280 6 242 21 217 58 C189 99 187 151 187 186 C187 323 232 491 285 588 C298 612 347 701 440 701 C484 701 516 680 537 650 C562 613 564 568 564 536 C564 461 555 402 541 336 L541 336 Z " />
<glyph glyph-name="R" unicode="R" horiz-adv-x="646" d="M424 173 C428 107 434 -11 569 -11 C603 -11 626 -5 644 0 L644 21 C617 15 614 14 604 14 C580 14 564 27 557 42 C551 54 550 69 549 101 L549 133 C548 239 544 330 378 380 C428 383 531 390 591 453 C630 493 635 537 635 562 C635 591 628 669 536 696 C502 706 470 706 427 706 L124 706 L118 685 L212 685 L71 21 L-15 21 L-20 0 L270 0 L274 21 L182 21 L258 373 L304 373 C332 372 366 371 391 342 C416 313 418 273 420 242 L424 173 Z M419 685 C457 685 519 684 519 594 C519 545 498 466 468 435 C432 398 376 397 306 395 L262 395 L325 685 L419 685 Z " />
<glyph glyph-name="S" unicode="S" horiz-adv-x="542" d="M18 0 L33 0 L93 57 C120 31 181 -14 263 -14 C412 -14 504 114 504 231 C504 346 423 392 345 437 L314 454 C240 498 197 523 197 578 C197 632 252 697 340 697 C394 697 450 668 474 618 C491 582 489 541 488 510 L510 510 L555 707 L539 707 L492 658 C477 674 434 721 342 721 C219 721 134 634 134 512 C134 410 201 368 264 331 L307 304 C368 265 433 224 433 153 C433 85 370 14 269 14 C203 14 147 44 114 101 C84 151 84 199 85 229 L62 229 L18 0 Z " />
<glyph glyph-name="T" unicode="T" horiz-adv-x="604" d="M493 685 C561 684 630 675 630 551 C630 520 628 510 624 490 L645 490 L693 706 L138 706 L83 490 L106 490 C123 549 144 600 186 640 C233 684 281 684 324 685 L351 685 L207 21 L120 21 L115 0 L405 0 L409 21 L318 21 L463 685 L493 685 Z " />
<glyph glyph-name="U" unicode="U" horiz-adv-x="646" d="M734 706 L545 706 L540 685 L630 685 L542 276 C516 158 495 77 433 36 C405 18 369 9 337 9 C317 9 239 12 212 84 C205 103 203 123 203 143 C203 185 213 225 222 264 L312 685 L398 685 L402 706 L122 706 L118 685 L200 685 L112 274 C104 238 97 204 97 169 C97 54 179 -15 315 -15 C444 -15 487 47 506 78 C533 123 544 173 570 288 L656 685 L730 685 L734 706 Z " />
<glyph glyph-name="V" unicode="V" horiz-adv-x="646" d="M755 706 L554 706 L549 685 L651 685 L255 159 L306 685 L389 685 L394 706 L106 706 L102 685 L194 685 L135 0 L162 0 L684 685 L751 685 L755 706 Z " />
<glyph glyph-name="W" unicode="W" horiz-adv-x="896" d="M1000 706 L821 706 L817 685 L908 685 L512 157 L544 480 L699 685 L767 685 L770 706 L123 706 L119 685 L196 685 L133 0 L157 0 L428 359 L396 0 L419 0 L938 685 L996 685 L1000 706 Z M302 685 L459 685 L433 405 L250 158 L302 685 Z M669 685 L547 522 L563 685 L669 685 Z " />
<glyph glyph-name="X" unicode="X" horiz-adv-x="646" d="M708 685 L712 706 L485 706 L480 685 L595 685 L394 434 L306 685 L399 685 L404 706 L107 706 L101 685 L188 685 L312 331 L66 21 L-13 21 L-18 0 L207 0 L211 21 L101 21 L323 303 L420 21 L328 21 L323 0 L622 0 L626 21 L538 21 L404 405 L626 685 L708 685 Z " />
<glyph glyph-name="Y" unicode="Y" horiz-adv-x="667" d="M758 685 L762 706 L556 706 L551 685 L646 685 L432 359 L315 685 L407 685 L412 706 L118 706 L112 685 L197 685 L328 324 L261 21 L174 21 L170 0 L463 0 L468 21 L377 21 L444 331 L678 685 L758 685 Z " />
<glyph glyph-name="Z" unicode="Z" horiz-adv-x="583" d="M539 220 C518 156 489 110 474 90 C429 30 385 23 300 21 L143 21 L637 685 L637 706 L176 706 L136 521 L155 521 C210 673 261 685 366 685 L500 685 L11 27 L11 0 L510 0 L559 220 L539 220 Z " />
<glyph glyph-name="bracketleft" unicode="&#x5b;" horiz-adv-x="333" d="M199 -271 L203 -250 L113 -250 L342 774 L433 774 L438 795 L245 795 L5 -271 L199 -271 Z " />
<glyph glyph-name="backslash" unicode="&#x5c;" horiz-adv-x="312" d="M265 0 L171 706 L107 706 L203 0 L265 0 Z " />
<glyph glyph-name="bracketright" unicode="&#x5d;" horiz-adv-x="333" d="M158 795 L154 774 L244 774 L15 -250 L-76 -250 L-81 -271 L112 -271 L352 795 L158 795 Z " />
<glyph glyph-name="asciicircum" unicode="&#x5e;" horiz-adv-x="667" d="M350 707 L177 363 L233 363 L373 651 L511 363 L567 363 L399 707 L350 707 Z " />
<glyph glyph-name="underscore" unicode="&#x5f;" horiz-adv-x="500" d="M-53 -75 L-53 -125 L467 -125 L467 -75 L-53 -75 Z " />
<glyph glyph-name="grave" unicode="&#x60;" horiz-adv-x="271" d="M55 650 C63 632 72 616 119 572 L205 493 L216 501 L138 650 L55 650 Z " />
<glyph glyph-name="a" unicode="a" horiz-adv-x="521" d="M363 361 C359 371 353 384 337 398 C320 413 295 424 265 424 C165 424 34 305 34 152 C34 42 111 -12 176 -12 C253 -12 292 50 304 69 C308 15 338 -10 374 -10 C447 -10 504 92 521 135 L506 141 C479 90 469 72 446 48 C430 32 416 25 406 25 C389 25 385 37 385 50 C385 54 390 91 402 141 L466 412 L375 412 L363 361 Z M325 192 C312 137 281 9 192 9 C143 9 124 50 124 97 C124 154 159 274 182 320 C211 378 250 402 280 402 C317 402 348 369 348 315 C348 286 333 223 325 192 L325 192 Z " />
<glyph glyph-name="b" unicode="b" horiz-adv-x="479" d="M76 706 L70 686 L163 686 L59 228 C51 192 44 159 44 126 C44 30 111 -12 187 -12 C326 -12 446 125 446 261 C446 377 357 424 295 424 C248 424 209 399 186 367 L179 357 L260 706 L76 706 Z M329 178 C314 120 285 7 196 7 C159 7 125 35 125 88 C125 125 149 240 170 297 C191 352 227 404 284 404 C320 404 354 379 354 318 C354 277 341 224 329 178 L329 178 Z " />
<glyph glyph-name="c" unicode="c" horiz-adv-x="396" d="M371 120 C335 72 286 8 214 8 C134 8 134 97 134 116 C134 187 161 285 193 335 C219 377 258 407 300 407 C337 407 349 381 349 376 C349 369 345 367 339 364 C333 360 314 347 314 325 C314 302 336 288 353 288 C372 288 403 305 403 342 C403 381 366 424 291 424 C243 424 150 400 89 316 C56 272 37 217 37 168 C37 68 108 -12 202 -12 C269 -12 336 28 386 107 L371 120 Z " />
<glyph glyph-name="d" unicode="d" horiz-adv-x="521" d="M506 142 C501 134 481 96 476 88 C455 52 425 25 406 24 C393 24 385 36 385 51 C385 68 390 95 401 142 L535 707 L349 707 L344 687 L437 687 L362 361 C347 387 328 423 266 423 C163 423 34 301 34 152 C34 47 104 -12 173 -12 C232 -12 278 29 297 58 L304 68 L304 57 C307 32 325 -10 373 -10 C436 -10 494 68 521 134 L506 142 Z M327 199 C308 118 293 69 253 34 C230 13 208 7 191 7 C154 7 124 36 124 97 C124 138 152 267 189 331 C219 383 255 401 284 401 C332 401 349 354 349 320 C349 295 334 227 327 199 L327 199 Z " />
<glyph glyph-name="e" unicode="e" horiz-adv-x="437" d="M365 107 C316 55 273 9 210 9 C130 9 130 91 130 111 C130 153 135 175 139 189 C222 186 424 211 424 330 C424 386 370 424 299 424 C245 424 157 399 99 331 C60 286 37 223 37 165 C37 60 109 -12 198 -12 C253 -12 319 16 380 97 L365 107 Z M143 205 C152 263 194 405 295 405 C329 405 352 384 352 350 C352 295 275 208 143 205 L143 205 Z " />
<glyph glyph-name="f" unicode="f" horiz-adv-x="271" d="M312 412 L218 412 L230 472 C256 587 275 650 320 685 C329 691 342 700 361 700 C371 700 374 693 374 690 C374 683 368 680 364 677 C358 674 349 669 349 652 C349 632 365 614 389 614 C407 614 435 630 435 661 C435 693 406 718 361 718 C337 718 283 710 228 649 C164 579 144 497 129 437 L123 412 L30 412 L25 392 L119 392 L10 -102 C-7 -176 -28 -267 -96 -267 C-101 -267 -119 -266 -119 -254 C-119 -250 -118 -249 -113 -240 C-108 -233 -106 -227 -106 -220 C-106 -201 -120 -188 -141 -188 C-169 -188 -178 -215 -178 -229 C-178 -262 -144 -284 -98 -284 C-52 -284 -11 -260 20 -226 C90 -150 115 -43 135 42 L213 392 L308 392 L312 412 Z " />
<glyph glyph-name="g" unicode="g" horiz-adv-x="458" d="M141 55 C107 55 63 56 63 97 C63 129 92 151 123 163 C155 137 197 132 224 132 C272 132 311 148 339 170 C389 211 397 265 401 299 L403 313 C408 354 413 389 425 389 C429 389 429 388 434 377 C440 366 452 361 462 361 C482 361 498 377 498 399 C498 412 488 439 460 439 C431 439 399 414 389 339 C363 408 300 424 253 424 C153 424 74 358 74 262 C74 227 85 201 108 177 C80 162 8 125 8 51 C8 3 44 -24 90 -33 C-7 -56 -42 -118 -42 -165 C-42 -246 52 -292 155 -292 C306 -292 401 -203 401 -80 C401 -26 380 6 361 22 C327 52 283 53 212 55 L141 55 Z M320 284 C313 250 294 149 218 149 C178 149 156 175 156 223 C156 248 171 406 264 406 C293 406 325 388 325 330 C325 314 323 299 320 284 L320 284 Z M181 -42 C295 -40 371 -42 371 -117 C371 -185 294 -267 164 -267 C72 -267 28 -216 28 -162 C28 -127 45 -93 68 -73 C104 -43 150 -42 181 -42 L181 -42 Z " />
<glyph glyph-name="h" unicode="h" horiz-adv-x="521" d="M313 133 C300 82 297 69 297 53 C297 -3 345 -10 366 -10 C413 -10 442 19 452 30 C469 47 498 83 519 133 L504 141 C489 110 469 72 438 42 C429 33 415 22 403 22 C387 22 385 36 385 48 C385 61 389 79 395 102 L436 280 C444 311 450 339 450 355 C450 407 401 424 369 424 C289 424 211 345 182 306 L279 706 L94 706 L90 686 L182 686 L19 0 L110 0 L159 199 C171 248 182 285 226 331 C276 383 317 389 329 389 C350 389 363 377 363 357 C363 349 360 338 358 329 L313 133 Z " />
<glyph glyph-name="i" unicode="i" horiz-adv-x="271" d="M145 627 C145 598 168 575 197 575 C226 575 249 598 249 627 C249 656 226 679 197 679 C168 679 145 656 145 627 L145 627 Z M26 392 L117 392 L53 119 C44 80 42 70 42 56 C42 -10 110 -10 114 -10 C165 -10 208 27 237 72 C253 97 262 118 267 133 L249 140 C242 122 222 74 191 44 C182 35 164 22 151 22 C137 22 130 34 130 49 C130 60 134 73 137 87 L214 412 L31 412 L26 392 Z " />
<glyph glyph-name="j" unicode="j" horiz-adv-x="250" d="M148 626 C148 597 171 574 200 574 C229 574 252 597 252 626 C252 655 229 678 200 678 C171 678 148 655 148 626 L148 626 Z M31 392 L123 392 L-5 -171 C-20 -229 -31 -272 -63 -272 C-70 -272 -79 -269 -79 -260 C-79 -256 -72 -239 -71 -236 C-69 -229 -69 -225 -69 -222 C-69 -202 -85 -187 -106 -187 C-138 -187 -147 -216 -147 -230 C-147 -267 -106 -292 -69 -292 C-29 -292 14 -266 46 -218 C86 -159 108 -73 123 -13 L220 412 L36 412 L31 392 Z " />
<glyph glyph-name="k" unicode="k" horiz-adv-x="500" d="M459 144 C441 93 399 27 373 27 C357 27 356 40 356 49 C356 58 359 75 360 82 C363 99 368 139 368 158 C368 229 322 254 279 263 C304 287 314 302 339 345 C351 365 374 402 403 402 C406 402 420 401 420 391 C420 385 416 382 412 379 C407 374 396 365 396 349 C396 330 413 315 434 315 C459 315 479 334 479 360 C479 393 448 422 407 422 C358 422 333 383 327 372 C320 361 314 349 307 338 C288 305 269 279 250 263 C232 263 213 263 172 252 L280 706 L96 706 L91 686 L182 686 L19 0 L112 0 L165 222 C210 219 236 226 263 247 C293 241 293 212 293 209 C293 201 292 198 286 169 L273 109 C270 93 266 75 266 59 C266 16 295 -10 334 -10 C366 -10 428 6 477 138 L459 144 Z " />
<glyph glyph-name="l" unicode="l" horiz-adv-x="271" d="M88 687 L184 687 L61 163 C46 97 42 77 42 57 C42 28 58 -10 109 -10 C195 -10 242 86 264 132 L248 140 C228 102 187 24 149 24 C138 24 127 30 127 47 C127 54 132 73 135 86 L280 707 L95 707 L88 687 Z " />
<glyph glyph-name="m" unicode="m" horiz-adv-x="750" d="M532 108 C528 90 524 74 524 57 C524 0 568 -10 590 -10 C628 -10 701 15 751 137 L732 143 C685 37 643 25 631 25 C627 25 613 25 613 44 C613 57 628 124 632 143 L666 290 C670 307 674 327 674 346 C674 401 631 424 588 424 C523 424 464 373 426 305 C430 319 434 331 434 348 C434 404 389 424 348 424 C277 424 223 369 186 306 L213 412 L33 412 L28 392 L117 392 L28 0 L117 0 L154 159 C166 211 190 313 260 369 C285 389 303 393 313 393 C329 393 348 384 348 359 C348 343 342 316 335 285 L268 1 L358 1 L396 161 C412 221 438 318 506 372 C527 388 542 392 552 392 C565 392 587 385 587 359 C587 345 583 327 578 305 L532 108 Z " />
<glyph glyph-name="n" unicode="n" horiz-adv-x="521" d="M31 412 L27 392 L118 392 L27 0 L115 0 L154 166 C166 211 184 279 229 334 C260 371 294 386 318 386 C335 386 356 378 356 349 C356 339 353 329 351 318 L299 94 C296 80 294 69 294 56 C294 11 330 -10 366 -10 C445 -10 500 92 519 134 L503 142 C484 106 468 75 440 46 C430 35 418 24 403 24 C393 24 383 31 383 48 C383 55 383 56 391 94 L439 304 C442 319 446 335 446 351 C446 399 407 424 360 424 C300 424 229 381 185 303 L210 412 L31 412 Z " />
<glyph glyph-name="o" unicode="o" horiz-adv-x="479" d="M394 98 C425 144 445 195 445 247 C445 335 380 424 281 424 C173 424 37 311 37 171 C37 67 114 -12 208 -12 C266 -12 338 18 394 98 L394 98 Z M337 208 C325 152 303 74 272 39 C255 19 229 5 201 5 C167 5 127 28 127 99 C127 166 163 300 191 346 C211 379 242 406 280 406 C331 406 351 368 351 319 C351 286 346 246 337 208 L337 208 Z " />
<glyph glyph-name="p" unicode="p" horiz-adv-x="500" d="M31 412 L26 392 L116 392 L-40 -267 L-103 -267 L-108 -288 L131 -288 L137 -267 L51 -267 L128 52 C137 33 158 -12 228 -12 C352 -12 465 123 465 253 C465 358 394 424 324 424 C268 424 223 384 194 336 L213 412 L31 412 Z M337 133 C307 48 263 10 217 10 C172 10 143 53 143 105 C143 149 192 401 310 401 C337 401 375 385 375 317 C375 261 351 170 337 133 L337 133 Z " />
<glyph glyph-name="q" unicode="q" horiz-adv-x="521" d="M387 343 C371 391 328 424 272 424 C147 424 36 282 36 155 C36 49 114 -12 187 -12 C267 -12 308 43 322 61 L245 -268 L173 -268 L168 -288 L407 -288 L412 -268 L337 -268 L494 412 L403 412 L387 343 Z M364 236 C360 213 342 132 313 84 C280 30 233 8 200 8 C149 8 124 49 124 100 C124 152 169 400 288 400 C341 400 370 352 370 292 C370 272 367 254 364 236 L364 236 Z " />
<glyph glyph-name="r" unicode="r" horiz-adv-x="354" d="M209 412 L32 412 L27 392 L118 392 L27 0 L117 0 L146 124 C177 253 191 286 228 337 C239 352 257 377 270 377 C277 377 279 372 283 366 C287 359 299 337 327 337 C355 337 370 362 370 381 C370 405 349 424 319 424 C248 424 199 329 184 301 L209 412 Z " />
<glyph glyph-name="s" unicode="s" horiz-adv-x="354" d="M179 275 C153 294 127 315 127 347 C127 383 162 408 207 408 C235 408 254 399 254 386 C254 382 252 379 249 376 C244 370 238 361 238 350 C238 333 250 318 272 318 C285 318 309 326 309 355 C309 394 263 424 207 424 C125 424 60 366 60 300 C60 248 93 222 153 173 L180 151 C203 133 230 110 230 81 C230 54 202 6 124 6 C83 6 65 23 65 31 C65 36 67 39 70 42 C85 60 86 71 86 79 C86 102 72 117 49 117 C23 117 10 97 10 74 C10 34 55 -12 130 -12 C228 -12 297 54 297 128 C297 188 251 222 220 245 L179 275 Z " />
<glyph glyph-name="t" unicode="t" horiz-adv-x="292" d="M299 412 L219 412 L252 558 L235 558 C209 518 162 445 64 412 L59 392 L125 392 L60 125 C52 93 48 75 48 59 C48 14 80 -10 118 -10 C189 -10 240 63 274 135 L257 143 C238 107 194 24 152 24 C138 24 134 33 134 44 C134 53 136 60 145 100 L214 392 L294 392 L299 412 Z " />
<glyph glyph-name="u" unicode="u" horiz-adv-x="521" d="M340 258 C325 203 299 102 220 44 C204 31 183 20 167 20 C152 20 131 30 131 60 C131 78 140 111 143 126 L210 412 L27 412 L22 392 L114 392 L54 134 C49 115 44 93 44 73 C44 24 78 -12 134 -12 C198 -12 264 37 302 108 C299 95 297 86 297 68 C297 53 297 -10 364 -10 C444 -10 497 92 517 135 L502 144 C481 104 462 66 430 40 C424 36 410 25 398 25 C391 25 382 29 382 46 C382 60 386 76 390 95 L464 412 L376 412 L340 258 Z " />
<glyph glyph-name="v" unicode="v" horiz-adv-x="458" d="M94 169 C85 131 80 105 80 83 C80 12 134 -12 183 -12 C330 -12 429 221 429 343 C429 380 417 424 377 424 C355 424 335 406 335 380 C335 369 339 339 380 333 C390 331 402 329 402 312 C402 206 305 18 214 18 C182 18 168 36 168 68 C168 90 178 133 184 159 L213 291 C216 309 226 351 226 366 C226 407 192 424 161 424 C74 424 31 331 7 281 L23 272 C51 322 59 338 83 362 C102 382 116 387 123 387 C135 387 137 380 137 370 C137 363 136 357 126 310 L94 169 Z " />
<glyph glyph-name="w" unicode="w" horiz-adv-x="708" d="M209 287 C218 328 221 341 221 355 C221 406 180 424 151 424 C127 424 101 413 81 396 C41 364 20 309 8 279 L23 273 C45 323 60 349 79 368 C93 383 109 391 119 391 C136 391 136 378 136 371 C136 356 133 344 127 320 L86 140 C81 114 74 81 74 61 C74 -6 138 -12 154 -12 C202 -12 244 18 279 63 C317 112 337 157 376 246 C368 198 361 158 361 118 C361 51 387 -12 458 -12 C584 -12 677 214 677 353 C677 386 666 423 632 423 C610 423 589 404 589 380 C589 365 598 342 630 338 C643 337 652 336 652 310 C652 225 594 112 558 65 C539 41 514 17 485 17 C444 17 441 57 441 87 C441 154 456 222 474 306 L497 412 L407 412 C343 142 243 36 207 21 C200 18 193 16 186 16 C166 16 156 29 156 46 C156 55 166 95 176 140 L209 287 Z " />
<glyph glyph-name="x" unicode="x" horiz-adv-x="500" d="M284 277 L273 331 C266 367 255 422 198 422 C145 422 99 369 57 274 L75 268 C117 358 148 379 158 379 C173 379 176 364 186 319 L213 186 L122 71 C112 59 98 41 89 41 C84 41 81 45 75 54 C64 72 50 72 45 72 C28 72 5 59 5 28 C5 8 18 -10 46 -10 C71 -10 92 7 118 36 C135 55 153 77 183 114 L218 158 L225 125 C242 50 256 -10 317 -10 C394 -10 443 90 465 134 L449 143 C414 75 377 28 354 28 C341 28 336 37 333 43 C326 58 322 78 318 99 L290 250 L341 316 C347 323 375 360 379 363 C382 365 384 366 387 366 C393 366 397 362 401 357 C409 348 418 342 430 342 C446 342 472 358 472 384 C472 405 454 422 433 422 C410 422 389 404 374 388 C370 384 331 336 312 313 L284 277 Z " />
<glyph glyph-name="y" unicode="y" horiz-adv-x="500" d="M284 94 L221 326 C212 358 202 391 186 405 C172 418 156 422 141 422 C119 422 99 412 84 399 C53 373 23 313 9 278 L25 270 C28 275 47 315 49 318 C69 358 87 375 99 375 C116 375 122 353 130 327 L198 85 C211 41 218 14 218 -9 C218 -65 152 -158 102 -204 C74 -230 35 -257 17 -257 C9 -257 3 -251 3 -247 C3 -245 5 -234 5 -232 C5 -219 -3 -198 -31 -198 C-59 -198 -76 -217 -76 -239 C-76 -263 -52 -286 -14 -286 C25 -286 108 -258 194 -131 C261 -31 315 108 353 206 L396 317 C408 348 411 358 422 358 C427 358 430 355 434 351 C438 347 445 339 460 339 C477 339 499 354 499 379 C499 399 484 422 455 422 C414 422 399 386 386 354 C376 330 364 299 341 242 L284 94 Z " />
<glyph glyph-name="z" unicode="z" horiz-adv-x="417" d="M45 264 L63 257 L93 323 C112 321 127 320 153 320 C224 320 278 334 328 349 L106 121 C55 69 23 32 19 26 C14 18 11 10 11 4 C11 -5 17 -12 27 -12 C39 -12 45 -1 45 7 L44 20 C44 29 48 41 64 41 C72 41 78 39 93 35 L159 15 C191 5 214 -2 257 -2 C274 -2 320 -2 359 46 C377 69 385 94 385 117 C385 150 367 173 344 173 C325 173 313 157 313 141 C313 121 330 112 350 112 C356 112 365 112 365 98 C365 79 350 54 317 54 C302 54 289 59 275 64 L246 74 C210 86 175 97 136 97 C125 97 119 96 106 95 L368 360 C385 377 403 395 403 411 C403 421 395 426 389 426 C380 426 367 411 368 387 C349 386 332 384 301 384 C236 384 172 391 112 416 L45 264 Z " />
<glyph glyph-name="braceleft" unicode="&#x7b;" horiz-adv-x="354" d="M169 -78 C169 -133 170 -185 198 -221 C230 -264 276 -268 351 -271 L351 -257 C329 -249 299 -240 279 -205 C263 -177 262 -140 262 -91 L262 45 C261 165 261 199 233 233 C219 249 206 255 188 261 C257 287 261 323 261 490 L261 615 C261 674 264 704 277 729 C298 765 329 774 351 781 L351 795 C285 792 254 790 229 772 C170 732 169 667 168 589 L168 432 C167 361 166 339 157 316 C143 282 125 277 103 270 L103 255 C168 236 169 171 169 82 L169 -78 Z " />
<glyph glyph-name="bar" unicode="&#x7c;" horiz-adv-x="229" d="M120 750 L120 -250 L164 -250 L164 750 L120 750 Z " />
<glyph glyph-name="braceright" unicode="&#x7d;" horiz-adv-x="354" d="M240 602 C240 657 239 709 211 745 C179 788 133 792 58 795 L58 781 C80 773 110 764 130 729 C146 701 147 664 147 615 L147 479 C148 359 148 325 176 291 C190 275 203 269 221 263 C152 237 148 201 148 34 L148 -91 C148 -150 145 -180 132 -205 C111 -241 80 -250 58 -257 L58 -271 C124 -268 155 -266 180 -248 C239 -208 240 -143 241 -65 L241 92 C242 163 243 185 252 208 C266 242 284 247 306 254 L306 269 C241 288 240 353 240 442 L240 602 Z " />
<glyph glyph-name="asciitilde" unicode="&#x7e;" horiz-adv-x="667" d="M360 316 C312 338 279 352 245 352 C181 352 146 301 132 278 L156 240 L180 270 C190 283 211 303 244 303 C274 303 306 288 331 276 L360 263 C405 241 425 232 454 232 C501 232 534 258 572 307 L547 346 C519 306 491 282 453 282 C435 282 422 288 391 301 L360 316 Z " />
<glyph glyph-name="exclamdown" unicode="&#xa1;" horiz-adv-x="271" d="M152 653 C152 620 179 593 212 593 C245 593 272 620 272 653 C272 686 245 713 212 713 C179 713 152 686 152 653 L152 653 Z M39 126 C29 101 15 67 15 45 C15 15 38 -6 72 -6 C82 -6 106 -4 122 17 C134 34 135 51 141 115 L147 176 C151 224 155 264 162 316 C180 447 182 462 187 484 L162 484 C121 346 76 226 57 174 L39 126 Z " />
<glyph glyph-name="cent" unicode="&#xa2;" horiz-adv-x="417" d="M201 -13 C264 -12 331 28 381 106 L366 117 C330 72 281 8 209 8 L206 8 L301 407 C333 405 346 383 346 376 C346 370 344 369 332 362 C318 354 310 339 310 325 C310 306 327 290 349 290 C383 290 400 319 400 343 C400 350 396 386 359 408 C338 420 317 423 305 424 L322 499 L292 499 L274 424 C114 402 34 275 34 167 C34 119 51 17 171 -10 L151 -98 L181 -98 L201 -13 Z M178 15 C111 35 128 169 151 244 C166 292 200 382 269 403 L178 15 Z " />
<glyph glyph-name="sterling" unicode="&#xa3;" horiz-adv-x="729" d="M601 352 L391 352 L410 471 C423 556 430 602 467 639 C500 671 537 673 555 673 C612 673 640 642 640 615 C640 601 638 598 623 575 C616 564 611 552 611 539 C611 504 642 492 661 492 C694 492 716 523 716 561 C716 613 668 695 548 695 C462 695 377 652 331 561 C316 530 306 496 299 462 C295 445 281 367 278 352 L90 352 L86 317 L272 317 C265 233 244 159 231 131 C219 104 207 90 200 82 C136 107 122 113 91 113 C36 113 10 80 10 53 C10 30 31 -3 78 -3 C125 -3 151 14 207 54 C221 47 285 16 299 11 C349 -11 408 -26 457 -26 C497 -26 541 -17 578 18 C615 52 653 126 658 215 L635 215 C627 166 609 119 572 87 C532 54 461 38 397 38 C337 38 285 50 229 71 C265 99 351 167 384 317 L597 317 L601 352 Z " />
<glyph glyph-name="currency" unicode="&#xa4;" horiz-adv-x="667" d="M591 602 L519 531 C494 551 446 588 362 588 C276 588 227 550 202 531 L132 602 L99 569 L169 498 C149 471 112 424 112 339 C112 255 149 207 170 181 L97 109 L130 76 L203 148 C228 127 274 91 361 91 C447 91 493 127 518 147 L590 75 L624 108 L551 181 C571 205 609 253 609 340 C609 427 572 473 553 497 L624 569 L591 602 Z M564 340 C563 221 474 134 362 134 C245 134 157 226 157 340 C157 458 248 545 361 545 C472 545 565 460 564 340 L564 340 Z " />
<glyph glyph-name="yen" unicode="&#xa5;" horiz-adv-x="667" d="M376 21 L422 224 L609 224 L614 250 L427 250 L439 307 L468 351 L637 351 L643 377 L486 377 L673 662 L753 662 L758 683 L551 683 L547 662 L641 662 L427 335 L311 662 L402 662 L407 683 L114 683 L108 662 L192 662 L295 377 L142 377 L136 351 L305 351 L323 299 L311 250 L115 250 L109 224 L306 224 L261 21 L175 21 L171 0 L462 0 L468 21 L376 21 Z " />
<glyph glyph-name="brokenbar" unicode="&#xa6;" horiz-adv-x="229" d="M164 689 L120 689 L120 308 L164 308 L164 689 Z M164 -191 L164 190 L120 190 L120 -191 L164 -191 Z " />
<glyph glyph-name="section" unicode="&#xa7;" horiz-adv-x="521" d="M251 141 C310 104 347 81 347 31 C347 -22 297 -64 216 -64 C157 -64 104 -37 104 -3 C104 11 111 17 128 30 C137 37 152 49 152 74 C152 105 128 120 104 120 C75 120 43 92 43 48 C43 -8 92 -85 221 -85 C350 -85 410 -1 410 81 C410 129 392 157 385 168 C412 177 437 185 466 211 C499 240 521 285 521 332 C521 403 466 443 406 482 L341 524 C285 560 243 587 243 646 C243 717 317 745 368 745 C424 745 465 714 465 689 C465 674 455 663 445 650 C433 636 424 625 424 608 C424 575 452 563 471 563 C494 563 530 585 530 632 C530 698 467 765 361 765 C262 765 167 705 167 600 C167 553 184 526 205 499 C120 469 90 428 78 405 C69 388 62 364 62 335 C62 257 117 223 167 192 L251 141 Z M368 379 C407 356 460 324 460 273 C460 220 402 192 368 187 C345 209 332 218 296 240 L229 283 C182 311 128 352 128 395 C128 428 159 467 221 480 C228 475 258 450 264 445 C277 435 292 426 306 417 L368 379 Z " />
<glyph glyph-name="dieresis" unicode="&#xa8;" horiz-adv-x="271" d="M-17 575 C-17 546 7 522 36 522 C65 522 89 546 89 575 C89 604 65 628 36 628 C7 628 -17 604 -17 575 L-17 575 Z M183 574 C183 545 207 521 236 521 C265 521 289 545 289 574 C289 603 265 627 236 627 C207 627 183 603 183 574 L183 574 Z " />
<glyph glyph-name="copyright" unicode="&#xa9;" horiz-adv-x="833" d="M800 351 C801 546 650 709 443 709 C252 709 88 558 88 353 C88 142 258 -3 443 -3 C644 -3 799 154 800 351 L800 351 Z M768 351 C767 173 627 29 444 29 C266 29 120 171 120 353 C120 531 262 677 445 677 C630 677 769 529 768 351 L768 351 Z M612 440 C606 487 604 506 599 565 C566 565 550 568 531 570 L510 572 C477 575 456 578 435 578 C369 578 324 558 297 536 C232 483 230 396 230 360 C230 282 249 219 282 181 C321 136 380 119 440 119 C463 119 478 121 522 125 L540 127 C571 131 584 133 617 135 C616 195 616 203 616 260 L596 260 C591 223 580 139 471 139 C411 139 369 160 342 219 C318 270 317 343 317 365 C317 403 317 557 467 557 C563 557 580 488 592 440 L612 440 Z " />
<glyph glyph-name="ordfeminine" unicode="&#xaa;" horiz-adv-x="354" d="M320 679 C311 693 297 714 258 714 C194 714 109 637 109 538 C109 466 159 431 202 431 C235 431 263 450 282 477 C285 462 292 432 328 432 C375 432 413 494 425 528 L412 534 C394 501 371 459 349 459 C340 459 338 465 338 472 C338 475 341 497 348 530 L390 707 L327 707 L320 679 Z M295 564 C286 528 267 449 212 449 C191 449 171 463 171 503 C171 526 197 695 269 695 C292 695 309 674 309 642 C309 624 300 584 295 564 L295 564 Z " />
<glyph glyph-name="guillemotleft" unicode="&#xab;" horiz-adv-x="354" d="M200 135 L105 239 L221 337 L163 337 L50 239 L147 135 L200 135 Z M309 135 L216 239 L338 337 L279 337 L160 239 L256 135 L309 135 Z " />
<glyph glyph-name="logicalnot" unicode="&#xac;" horiz-adv-x="667" d="M684 0 L684 314 L17 314 L17 268 L640 268 L640 0 L684 0 Z " />
<glyph glyph-name="registered" unicode="&#xae;" horiz-adv-x="833" d="M805 351 C806 546 654 709 448 709 C256 709 93 558 93 353 C93 142 262 -3 448 -3 C649 -3 804 155 805 351 L805 351 Z M773 351 C772 173 631 29 448 29 C270 29 125 171 125 353 C125 531 267 677 450 677 C635 677 774 529 773 351 L773 351 Z M575 279 C567 310 556 353 509 366 C595 379 621 427 621 471 C621 512 597 542 570 557 C544 571 510 574 469 574 C451 574 375 572 359 572 C340 572 328 572 278 574 L278 549 C324 545 324 531 324 491 L324 229 C323 169 323 165 278 158 L278 133 C313 134 339 135 368 135 C384 135 407 135 438 133 L438 158 C387 166 386 178 386 228 L386 356 L429 356 C493 352 500 326 518 247 C536 173 547 129 601 129 C656 129 672 207 678 235 L653 239 C649 217 640 184 617 184 C598 184 593 203 584 241 L575 279 Z M386 390 L386 472 C386 531 388 544 459 544 C482 544 520 543 542 509 C550 497 554 483 554 468 C554 420 512 400 487 394 C473 391 460 390 428 390 L386 390 Z " />
<glyph glyph-name="macron" unicode="&#xaf;" horiz-adv-x="271" d="M8 612 L-4 555 L262 555 L275 612 L8 612 Z " />
<glyph glyph-name="degree" unicode="&#xb0;" horiz-adv-x="354" d="M102 601 C102 523 166 459 244 459 C322 459 386 523 386 601 C386 679 322 743 244 743 C166 743 102 679 102 601 L102 601 Z M147 601 C147 655 190 698 244 698 C298 698 341 655 341 601 C341 547 298 504 244 504 C190 504 147 547 147 601 L147 601 Z " />
<glyph glyph-name="plusminus" unicode="&#xb1;" horiz-adv-x="667" d="M658 381 L658 426 L390 426 L390 691 L344 691 L344 426 L73 426 L73 381 L344 381 L344 116 L390 116 L390 381 L658 381 Z M73 46 L73 0 L658 0 L658 46 L73 46 Z " />
<glyph glyph-name="twosuperior" unicode="&#xb2;" horiz-adv-x="354" d="M334 357 C333 348 327 318 310 308 C300 302 291 302 265 301 L114 301 L185 362 C240 408 306 462 340 509 C356 530 371 556 371 591 C371 662 307 690 252 690 C175 690 120 639 120 582 C120 554 135 527 163 527 C190 527 199 549 199 561 C199 582 180 592 172 593 C167 594 152 595 152 608 C152 633 192 665 236 665 C243 665 297 665 297 593 C297 496 199 408 112 334 L54 282 L54 241 L330 241 L355 357 L334 357 Z " />
<glyph glyph-name="threesuperior" unicode="&#xb3;" horiz-adv-x="354" d="M159 489 C150 489 141 484 141 476 C141 472 143 463 155 463 C158 463 172 467 175 467 C186 469 193 470 198 470 C263 470 263 408 263 391 C263 315 221 252 151 252 C113 252 96 272 96 283 C96 287 98 288 103 290 C126 299 132 316 132 326 C132 341 120 359 100 359 C75 359 60 335 60 311 C60 298 68 234 158 234 C260 234 338 304 338 378 C338 419 314 456 274 472 C262 477 249 479 236 482 C253 488 271 495 287 504 C324 525 354 560 354 602 C354 662 303 691 246 691 C174 691 129 651 129 614 C129 598 141 581 161 581 C180 581 193 595 193 612 C193 622 190 628 185 634 C178 641 178 642 178 645 C178 654 196 672 231 672 C274 672 284 638 284 609 C284 559 250 488 185 488 L159 489 Z " />
<glyph glyph-name="acute" unicode="&#xb4;" horiz-adv-x="271" d="M154 650 L23 505 L33 496 L179 588 C222 617 232 625 247 650 L154 650 Z " />
<glyph glyph-name="mu" unicode="&#xb5;" horiz-adv-x="521" d="M464 412 L376 412 L340 259 C326 206 312 150 269 92 C230 40 192 20 169 20 C149 20 133 34 133 65 C133 82 137 100 146 138 L210 412 L27 412 L22 392 L114 392 L-45 -289 L43 -289 L113 5 C122 -4 129 -12 150 -12 C188 -12 256 23 302 108 C299 95 297 86 297 68 C297 53 297 -10 364 -10 C444 -10 497 92 517 135 L502 144 C481 104 462 66 430 40 C424 36 410 25 398 25 C391 25 382 29 382 46 C382 60 386 76 390 95 L464 412 Z " />
<glyph glyph-name="paragraph" unicode="&#xb6;" horiz-adv-x="667" d="M573 669 L573 706 L363 706 C321 705 260 705 207 663 C162 628 140 573 140 517 C140 400 222 342 299 338 L299 -167 L338 -167 L338 669 L502 669 L502 -167 L540 -167 L540 669 L573 669 Z " />
<glyph glyph-name="periodcentered" unicode="&#xb7;" horiz-adv-x="229" d="M70 279 C70 245 97 218 131 218 C165 218 192 245 192 279 C192 313 165 340 131 340 C97 340 70 313 70 279 L70 279 Z " />
<glyph glyph-name="cedilla" unicode="&#xb8;" horiz-adv-x="271" d="M120 -86 C165 -92 173 -122 173 -135 C173 -160 148 -193 106 -193 C96 -193 65 -190 65 -170 C65 -167 68 -154 68 -151 C68 -144 63 -130 48 -130 C36 -130 26 -141 26 -156 C26 -181 58 -215 129 -215 C223 -215 245 -161 245 -139 C245 -124 237 -108 224 -97 C201 -77 172 -76 154 -76 L207 1 L183 1 L120 -86 Z " />
<glyph glyph-name="onesuperior" unicode="&#xb9;" horiz-adv-x="354" d="M168 666 L220 666 C230 665 247 665 247 647 C247 643 246 638 244 631 L163 260 L91 260 L87 241 L311 241 L315 260 L233 260 L311 624 C320 664 322 672 329 696 C276 688 223 685 172 685 L168 666 Z " />
<glyph glyph-name="ordmasculine" unicode="&#xba;" horiz-adv-x="313" d="M335 503 C352 527 368 561 368 599 C368 657 324 714 261 714 C191 714 102 641 102 550 C102 481 155 431 214 431 C252 431 299 451 335 503 L335 503 Z M294 575 C275 489 253 447 210 447 C188 447 165 462 165 504 C165 547 187 632 205 661 C218 681 237 698 261 698 C292 698 303 674 303 645 C303 625 300 600 294 575 L294 575 Z " />
<glyph glyph-name="guillemotright" unicode="&#xbb;" horiz-adv-x="354" d="M169 337 L264 233 L149 135 L206 135 L320 233 L223 337 L169 337 Z M61 337 L154 233 L31 135 L90 135 L209 233 L114 337 L61 337 Z " />
<glyph glyph-name="onequarter" unicode="&#xbc;" horiz-adv-x="833" d="M756 74 L776 74 L801 188 L780 188 L772 151 L717 151 L780 441 L735 441 L490 152 L490 129 L646 129 L622 19 L569 19 L565 0 L739 0 L743 19 L689 19 L713 129 L767 129 L756 74 Z M287 0 L327 0 L605 683 L564 683 L287 0 Z M698 365 L651 151 L518 151 L698 365 Z M168 666 L221 666 C230 665 247 665 247 647 C247 643 246 638 245 631 L164 260 L92 260 L87 241 L311 241 L316 260 L234 260 L312 624 C320 664 322 672 329 696 C277 688 223 685 173 685 L168 666 Z " />
<glyph glyph-name="onehalf" unicode="&#xbd;" horiz-adv-x="833" d="M168 666 L220 666 C230 665 247 665 247 647 C247 643 246 638 244 631 L163 260 L91 260 L87 241 L310 241 L315 260 L233 260 L311 624 C320 664 321 672 329 696 C276 688 222 685 172 685 L168 666 Z M281 0 L320 0 L598 683 L558 683 L281 0 Z M761 116 C760 108 754 77 737 67 C727 61 718 61 692 60 L541 60 L612 121 C667 167 733 221 767 267 C783 288 798 315 798 350 C798 421 734 449 679 449 C602 449 547 398 547 341 C547 312 562 285 590 285 C617 285 626 308 626 320 C626 336 612 349 599 352 C586 355 579 356 579 367 C579 392 619 424 663 424 C670 424 724 424 724 352 C724 254 626 166 539 93 L481 41 L481 0 L757 0 L782 116 L761 116 Z " />
<glyph glyph-name="threequarters" unicode="&#xbe;" horiz-adv-x="833" d="M756 74 L776 74 L801 188 L780 188 L772 151 L717 151 L780 443 L735 443 L490 152 L490 129 L646 129 L622 19 L569 19 L565 0 L739 0 L743 19 L689 19 L713 129 L767 129 L756 74 Z M287 0 L326 0 L605 684 L564 684 L287 0 Z M698 365 L651 151 L518 151 L698 365 Z M159 489 C150 489 141 484 141 476 C141 472 143 463 155 463 C158 463 172 467 175 467 C186 469 193 470 198 470 C263 470 263 408 263 391 C263 315 221 252 151 252 C113 252 96 272 96 283 C96 287 98 288 103 290 C126 299 132 316 132 326 C132 341 120 359 100 359 C75 359 60 335 60 311 C60 298 68 234 158 234 C260 234 338 304 338 378 C338 419 314 456 274 472 C262 477 249 479 236 482 C253 488 271 495 287 504 C324 525 354 560 354 602 C354 662 303 691 246 691 C174 691 129 651 129 614 C129 598 141 581 161 581 C180 581 193 595 193 612 C193 622 190 628 185 634 C178 641 178 642 178 645 C178 654 196 672 231 672 C274 672 284 638 284 609 C284 559 250 488 185 488 L159 489 Z " />
<glyph glyph-name="questiondown" unicode="&#xbf;" horiz-adv-x="437" d="M275 651 C275 617 302 590 336 590 C370 590 397 617 397 651 C397 685 370 712 336 712 C302 712 275 685 275 651 L275 651 Z M192 365 C144 339 95 311 63 253 C48 227 35 191 35 151 C35 50 110 -12 199 -12 C288 -12 352 48 352 113 C352 153 323 175 300 175 C278 175 258 155 258 132 C258 109 276 92 295 88 C311 85 314 84 314 76 C314 51 264 10 202 10 C119 10 77 69 77 118 C77 183 135 219 168 240 L204 262 C269 306 303 337 320 430 C326 463 326 477 326 495 L305 494 C303 422 269 403 231 385 L192 365 Z " />
<glyph glyph-name="Agrave" unicode="&#xc0;" horiz-adv-x="667" d="M329 21 L325 0 L617 0 L622 21 L533 21 L585 706 L568 706 L52 21 L-21 21 L-26 0 L180 0 L185 21 L85 21 L240 225 L440 225 L421 21 L329 21 Z M471 539 L442 250 L258 250 L471 539 Z M526 895 L427 895 C442 871 452 865 481 847 L601 769 L610 780 L526 895 Z " />
<glyph glyph-name="Aacute" unicode="&#xc1;" horiz-adv-x="667" d="M329 21 L325 0 L617 0 L622 21 L533 21 L585 706 L568 706 L52 21 L-21 21 L-26 0 L180 0 L185 21 L85 21 L240 225 L440 225 L421 21 L329 21 Z M471 539 L442 250 L258 250 L471 539 Z M721 848 C748 861 768 871 788 895 L677 895 L544 779 L552 767 L721 848 Z " />
<glyph glyph-name="Acircumflex" unicode="&#xc2;" horiz-adv-x="667" d="M329 21 L325 0 L617 0 L622 21 L533 21 L585 706 L568 706 L52 21 L-21 21 L-26 0 L180 0 L185 21 L85 21 L240 225 L440 225 L421 21 L329 21 Z M471 539 L442 250 L258 250 L471 539 Z M446 767 L603 818 L694 767 L707 776 L619 897 L436 782 L446 767 Z " />
<glyph glyph-name="Atilde" unicode="&#xc3;" horiz-adv-x="667" d="M329 21 L325 0 L617 0 L622 21 L533 21 L585 706 L568 706 L52 21 L-21 21 L-26 0 L180 0 L185 21 L85 21 L240 225 L440 225 L421 21 L329 21 Z M471 539 L442 250 L258 250 L471 539 Z M719 871 C696 844 673 844 667 844 C655 844 645 847 627 852 L612 856 C577 867 566 870 550 870 C500 870 459 836 433 793 L457 793 C465 803 482 823 514 823 C533 823 558 815 568 812 L591 805 C604 801 618 796 637 796 C683 796 725 832 741 871 L719 871 Z " />
<glyph glyph-name="Adieresis" unicode="&#xc4;" horiz-adv-x="667" d="M329 21 L325 0 L617 0 L622 21 L533 21 L585 706 L568 706 L52 21 L-21 21 L-26 0 L180 0 L185 21 L85 21 L240 225 L440 225 L421 21 L329 21 Z M471 539 L442 250 L258 250 L471 539 Z M761 820 C762 850 741 876 709 876 C677 876 654 852 654 821 C654 790 679 769 708 769 C741 769 759 794 761 820 L761 820 Z M560 821 C561 850 538 876 506 876 C477 876 454 851 454 823 C454 799 470 769 508 769 C543 769 559 798 560 821 L560 821 Z " />
<glyph glyph-name="Aring" unicode="&#xc5;" horiz-adv-x="667" d="M329 21 L325 0 L617 0 L622 21 L533 21 L585 706 L568 706 L52 21 L-21 21 L-26 0 L180 0 L185 21 L85 21 L240 225 L440 225 L421 21 L329 21 Z M471 539 L442 250 L258 250 L471 539 Z M687 818 C688 870 647 901 606 901 C559 901 524 863 524 819 C524 778 559 738 606 738 C651 738 686 774 687 818 L687 818 Z M657 819 C657 799 642 770 607 770 C578 770 556 793 556 821 C556 850 582 870 607 870 C635 870 658 848 657 819 L657 819 Z " />
<glyph glyph-name="AE" unicode="&#xc6;" horiz-adv-x="938" d="M330 21 L326 0 L857 0 L903 213 L884 213 C871 180 869 172 859 150 C801 25 710 23 613 21 L537 21 L598 357 L636 357 C662 356 719 354 719 295 C719 286 715 256 713 237 L711 221 L730 221 L790 499 L771 499 L767 479 C751 396 704 378 629 378 L603 378 L660 685 L777 685 C852 682 923 679 923 573 C923 555 921 541 920 531 L939 531 L977 706 L434 706 L434 685 L524 685 L44 21 L-19 21 L-23 0 L176 0 L181 21 L79 21 L269 287 L474 287 L425 21 L330 21 Z M547 672 L479 313 L287 313 L547 672 Z " />
<glyph glyph-name="Ccedilla" unicode="&#xc7;" horiz-adv-x="625" d="M566 198 C537 142 513 95 464 55 C440 36 401 11 347 11 C308 11 191 27 191 212 C191 358 265 697 460 697 C523 697 579 652 579 555 C579 544 578 520 576 502 L601 502 L645 702 L621 702 L589 657 C557 701 503 721 449 721 C407 721 340 709 264 651 C127 547 68 376 68 264 C68 89 187 -7 319 -14 L267 -86 C312 -92 320 -122 320 -135 C320 -160 295 -193 253 -193 C243 -193 212 -190 212 -170 C212 -167 215 -154 215 -151 C215 -144 210 -130 195 -130 C183 -130 173 -141 173 -156 C173 -181 205 -215 276 -215 C370 -215 392 -160 392 -139 C392 -124 384 -108 371 -97 C348 -77 319 -76 301 -76 L345 -13 C410 -9 457 17 499 46 L524 1 L544 1 L588 198 L566 198 Z " />
<glyph glyph-name="Egrave" unicode="&#xc8;" horiz-adv-x="604" d="M374 219 L395 219 L455 499 L436 499 L430 477 C422 449 415 406 368 387 C344 377 319 377 294 377 L259 377 L325 685 L426 685 C491 685 536 685 564 651 C580 631 588 600 588 573 C588 558 586 545 584 529 L605 529 L642 706 L123 706 L119 685 L213 685 L70 21 L-17 21 L-21 0 L524 0 L570 213 L548 213 C536 174 522 127 485 87 C431 27 366 23 286 21 L182 21 L254 355 L299 355 C324 355 386 356 386 294 C386 279 383 260 380 246 L374 219 Z M401 895 L302 895 C317 871 327 865 356 847 L476 769 L485 780 L401 895 Z " />
<glyph glyph-name="Eacute" unicode="&#xc9;" horiz-adv-x="604" d="M374 219 L395 219 L455 499 L436 499 L430 477 C422 449 415 406 368 387 C344 377 319 377 294 377 L259 377 L325 685 L426 685 C491 685 536 685 564 651 C580 631 588 600 588 573 C588 558 586 545 584 529 L605 529 L642 706 L123 706 L119 685 L213 685 L70 21 L-17 21 L-21 0 L524 0 L570 213 L548 213 C536 174 522 127 485 87 C431 27 366 23 286 21 L182 21 L254 355 L299 355 C324 355 386 356 386 294 C386 279 383 260 380 246 L374 219 Z M544 848 C571 861 591 871 611 895 L500 895 L367 779 L375 767 L544 848 Z " />
<glyph glyph-name="Ecircumflex" unicode="&#xca;" horiz-adv-x="604" d="M374 219 L395 219 L455 499 L436 499 L430 477 C422 449 415 406 368 387 C344 377 319 377 294 377 L259 377 L325 685 L426 685 C491 685 536 685 564 651 C580 631 588 600 588 573 C588 558 586 545 584 529 L605 529 L642 706 L123 706 L119 685 L213 685 L70 21 L-17 21 L-21 0 L524 0 L570 213 L548 213 C536 174 522 127 485 87 C431 27 366 23 286 21 L182 21 L254 355 L299 355 C324 355 386 356 386 294 C386 279 383 260 380 246 L374 219 Z M295 767 L452 818 L543 767 L556 776 L468 897 L285 782 L295 767 Z " />
<glyph glyph-name="Edieresis" unicode="&#xcb;" horiz-adv-x="604" d="M374 219 L395 219 L455 499 L436 499 L430 477 C422 449 415 406 368 387 C344 377 319 377 294 377 L259 377 L325 685 L426 685 C491 685 536 685 564 651 C580 631 588 600 588 573 C588 558 586 545 584 529 L605 529 L642 706 L123 706 L119 685 L213 685 L70 21 L-17 21 L-21 0 L524 0 L570 213 L548 213 C536 174 522 127 485 87 C431 27 366 23 286 21 L182 21 L254 355 L299 355 C324 355 386 356 386 294 C386 279 383 260 380 246 L374 219 Z M576 820 C577 850 556 876 524 876 C492 876 469 852 469 821 C469 790 494 769 523 769 C556 769 574 794 576 820 L576 820 Z M375 821 C376 850 353 876 321 876 C292 876 269 851 269 823 C269 799 285 769 323 769 C358 769 374 798 375 821 L375 821 Z " />
<glyph glyph-name="Igrave" unicode="&#xcc;" horiz-adv-x="333" d="M413 685 L418 706 L124 706 L119 685 L213 685 L71 21 L-18 21 L-23 0 L274 0 L278 21 L183 21 L326 685 L413 685 Z M266 895 L167 895 C182 871 192 865 221 847 L341 769 L350 780 L266 895 Z " />
<glyph glyph-name="Iacute" unicode="&#xcd;" horiz-adv-x="333" d="M413 685 L418 706 L124 706 L119 685 L213 685 L71 21 L-18 21 L-23 0 L274 0 L278 21 L183 21 L326 685 L413 685 Z M409 848 C436 861 456 871 476 895 L365 895 L232 779 L240 767 L409 848 Z " />
<glyph glyph-name="Icircumflex" unicode="&#xce;" horiz-adv-x="333" d="M413 685 L418 706 L124 706 L119 685 L213 685 L71 21 L-18 21 L-23 0 L274 0 L278 21 L183 21 L326 685 L413 685 Z M160 767 L317 818 L408 767 L421 776 L333 897 L150 782 L160 767 Z " />
<glyph glyph-name="Idieresis" unicode="&#xcf;" horiz-adv-x="333" d="M413 685 L418 706 L124 706 L119 685 L213 685 L71 21 L-18 21 L-23 0 L274 0 L278 21 L183 21 L326 685 L413 685 Z M457 820 C458 850 437 876 405 876 C373 876 350 852 350 821 C350 790 375 769 404 769 C437 769 455 794 457 820 L457 820 Z M256 821 C257 850 234 876 202 876 C173 876 150 851 150 823 C150 799 166 769 204 769 C239 769 255 798 256 821 L256 821 Z " />
<glyph glyph-name="Eth" unicode="&#xd0;" horiz-adv-x="688" d="M-20 0 L237 0 C337 0 422 1 510 65 C639 159 680 324 680 426 C680 565 610 636 561 666 C495 706 422 706 359 706 L130 706 L125 685 L216 685 L155 407 L65 407 L58 377 L148 377 L70 21 L-15 21 L-20 0 Z M411 377 L418 407 L267 407 L328 685 L384 685 C436 684 498 684 538 626 C563 588 565 544 565 516 C565 450 547 285 488 159 C424 25 344 22 246 21 L183 21 L261 377 L411 377 Z " />
<glyph glyph-name="Ntilde" unicode="&#xd1;" horiz-adv-x="667" d="M747 685 L752 706 L559 706 L554 685 L648 685 L543 207 L342 706 L127 706 L123 685 L208 685 L64 21 L-16 21 L-21 0 L183 0 L188 21 L92 21 L234 675 L507 0 L525 0 L676 685 L747 685 Z M599 871 C576 844 553 844 547 844 C535 844 525 847 507 852 L492 856 C457 867 446 870 430 870 C380 870 339 836 313 793 L337 793 C345 803 362 823 394 823 C413 823 438 815 448 812 L471 805 C484 801 498 796 517 796 C563 796 605 832 621 871 L599 871 Z " />
<glyph glyph-name="Ograve" unicode="&#xd2;" horiz-adv-x="688" d="M537 91 C645 199 681 326 681 427 C681 605 576 721 440 721 C251 721 69 492 69 282 C69 144 151 -15 314 -15 C400 -15 477 31 537 91 L537 91 Z M537 310 C482 73 405 34 368 19 C350 11 332 7 313 7 C276 7 240 25 218 56 C188 97 186 155 186 188 C186 333 234 476 258 534 C275 575 328 701 442 701 C500 701 528 665 539 648 C562 612 565 568 565 534 C565 448 549 365 537 310 L537 310 Z M443 895 L344 895 C359 871 369 865 398 847 L518 769 L527 780 L443 895 Z " />
<glyph glyph-name="Oacute" unicode="&#xd3;" horiz-adv-x="688" d="M537 91 C645 199 681 326 681 427 C681 605 576 721 440 721 C251 721 69 492 69 282 C69 144 151 -15 314 -15 C400 -15 477 31 537 91 L537 91 Z M537 310 C482 73 405 34 368 19 C350 11 332 7 313 7 C276 7 240 25 218 56 C188 97 186 155 186 188 C186 333 234 476 258 534 C275 575 328 701 442 701 C500 701 528 665 539 648 C562 612 565 568 565 534 C565 448 549 365 537 310 L537 310 Z M586 848 C613 861 633 871 653 895 L542 895 L409 779 L417 767 L586 848 Z " />
<glyph glyph-name="Ocircumflex" unicode="&#xd4;" horiz-adv-x="688" d="M537 91 C645 199 681 326 681 427 C681 605 576 721 440 721 C251 721 69 492 69 282 C69 144 151 -15 314 -15 C400 -15 477 31 537 91 L537 91 Z M537 310 C482 73 405 34 368 19 C350 11 332 7 313 7 C276 7 240 25 218 56 C188 97 186 155 186 188 C186 333 234 476 258 534 C275 575 328 701 442 701 C500 701 528 665 539 648 C562 612 565 568 565 534 C565 448 549 365 537 310 L537 310 Z M337 767 L494 818 L585 767 L598 776 L510 897 L327 782 L337 767 Z " />
<glyph glyph-name="Otilde" unicode="&#xd5;" horiz-adv-x="688" d="M537 91 C645 199 681 326 681 427 C681 605 576 721 440 721 C251 721 69 492 69 282 C69 144 151 -15 314 -15 C400 -15 477 31 537 91 L537 91 Z M537 310 C482 73 405 34 368 19 C350 11 332 7 313 7 C276 7 240 25 218 56 C188 97 186 155 186 188 C186 333 234 476 258 534 C275 575 328 701 442 701 C500 701 528 665 539 648 C562 612 565 568 565 534 C565 448 549 365 537 310 L537 310 Z M610 871 C587 844 564 844 558 844 C546 844 536 847 518 852 L503 856 C468 867 457 870 441 870 C391 870 350 836 324 793 L348 793 C356 803 373 823 405 823 C424 823 449 815 459 812 L482 805 C495 801 509 796 528 796 C574 796 616 832 632 871 L610 871 Z " />
<glyph glyph-name="Odieresis" unicode="&#xd6;" horiz-adv-x="688" d="M537 91 C645 199 681 326 681 427 C681 605 576 721 440 721 C251 721 69 492 69 282 C69 144 151 -15 314 -15 C400 -15 477 31 537 91 L537 91 Z M537 310 C482 73 405 34 368 19 C350 11 332 7 313 7 C276 7 240 25 218 56 C188 97 186 155 186 188 C186 333 234 476 258 534 C275 575 328 701 442 701 C500 701 528 665 539 648 C562 612 565 568 565 534 C565 448 549 365 537 310 L537 310 Z M642 820 C643 850 622 876 590 876 C558 876 535 852 535 821 C535 790 560 769 589 769 C622 769 640 794 642 820 L642 820 Z M441 821 C442 850 419 876 387 876 C358 876 335 851 335 823 C335 799 351 769 389 769 C424 769 440 798 441 821 L441 821 Z " />
<glyph glyph-name="multiply" unicode="&#xd7;" horiz-adv-x="667" d="M398 292 L610 504 L578 535 L365 323 L152 535 L121 504 L333 292 L121 77 L152 46 L365 260 L578 46 L610 77 L398 292 Z " />
<glyph glyph-name="Oslash" unicode="&#xd8;" horiz-adv-x="688" d="M664 696 L614 640 C565 698 500 720 441 720 C245 720 67 483 67 282 C67 251 73 170 119 95 L65 33 L86 14 L137 70 C183 15 239 -14 311 -14 C482 -14 682 189 682 428 C682 529 647 589 630 618 L685 678 L664 696 Z M182 164 C180 244 191 319 212 396 C268 612 349 699 446 699 C524 699 558 635 566 586 L182 164 Z M569 551 C573 427 522 166 430 65 C398 31 355 8 309 8 C281 8 249 19 229 38 C204 61 192 91 186 125 L569 551 Z " />
<glyph glyph-name="Ugrave" unicode="&#xd9;" horiz-adv-x="646" d="M734 706 L545 706 L540 685 L630 685 L542 276 C516 158 495 77 433 36 C405 18 369 9 337 9 C317 9 239 12 212 84 C205 103 203 123 203 143 C203 185 213 225 222 264 L312 685 L398 685 L402 706 L122 706 L118 685 L200 685 L112 274 C104 238 97 204 97 169 C97 54 179 -15 315 -15 C444 -15 487 47 506 78 C533 123 544 173 570 288 L656 685 L730 685 L734 706 Z M422 895 L323 895 C338 871 348 865 377 847 L497 769 L506 780 L422 895 Z " />
<glyph glyph-name="Uacute" unicode="&#xda;" horiz-adv-x="646" d="M734 706 L545 706 L540 685 L630 685 L542 276 C516 158 495 77 433 36 C405 18 369 9 337 9 C317 9 239 12 212 84 C205 103 203 123 203 143 C203 185 213 225 222 264 L312 685 L398 685 L402 706 L122 706 L118 685 L200 685 L112 274 C104 238 97 204 97 169 C97 54 179 -15 315 -15 C444 -15 487 47 506 78 C533 123 544 173 570 288 L656 685 L730 685 L734 706 Z M565 848 C592 861 612 871 632 895 L521 895 L388 779 L396 767 L565 848 Z " />
<glyph glyph-name="Ucircumflex" unicode="&#xdb;" horiz-adv-x="646" d="M734 706 L545 706 L540 685 L630 685 L542 276 C516 158 495 77 433 36 C405 18 369 9 337 9 C317 9 239 12 212 84 C205 103 203 123 203 143 C203 185 213 225 222 264 L312 685 L398 685 L402 706 L122 706 L118 685 L200 685 L112 274 C104 238 97 204 97 169 C97 54 179 -15 315 -15 C444 -15 487 47 506 78 C533 123 544 173 570 288 L656 685 L730 685 L734 706 Z M316 767 L473 818 L564 767 L577 776 L489 897 L306 782 L316 767 Z " />
<glyph glyph-name="Udieresis" unicode="&#xdc;" horiz-adv-x="646" d="M734 706 L545 706 L540 685 L630 685 L542 276 C516 158 495 77 433 36 C405 18 369 9 337 9 C317 9 239 12 212 84 C205 103 203 123 203 143 C203 185 213 225 222 264 L312 685 L398 685 L402 706 L122 706 L118 685 L200 685 L112 274 C104 238 97 204 97 169 C97 54 179 -15 315 -15 C444 -15 487 47 506 78 C533 123 544 173 570 288 L656 685 L730 685 L734 706 Z M621 820 C622 850 601 876 569 876 C537 876 514 852 514 821 C514 790 539 769 568 769 C601 769 619 794 621 820 L621 820 Z M420 821 C421 850 398 876 366 876 C337 876 314 851 314 823 C314 799 330 769 368 769 C403 769 419 798 420 821 L420 821 Z " />
<glyph glyph-name="Yacute" unicode="&#xdd;" horiz-adv-x="667" d="M758 685 L762 706 L556 706 L551 685 L646 685 L432 359 L315 685 L407 685 L412 706 L118 706 L112 685 L197 685 L328 324 L261 21 L174 21 L170 0 L463 0 L468 21 L377 21 L444 331 L678 685 L758 685 Z M575 848 C602 861 622 871 642 895 L531 895 L398 779 L406 767 L575 848 Z " />
<glyph glyph-name="Thorn" unicode="&#xde;" horiz-adv-x="583" d="M329 685 L417 685 L422 706 L129 706 L124 685 L215 685 L71 21 L-14 21 L-19 0 L276 0 L280 21 L184 21 L221 186 C245 185 269 185 292 185 C368 185 484 185 560 264 C595 301 617 354 617 406 C617 433 610 521 515 553 C478 565 439 565 403 565 L303 565 L329 685 Z M384 544 C435 544 496 543 496 462 C496 400 473 288 442 251 C405 207 341 206 293 206 C281 206 255 206 226 208 L299 544 L384 544 Z " />
<glyph glyph-name="germandbls" unicode="&#xdf;" horiz-adv-x="500" d="M7 -65 C-9 -135 -26 -211 -61 -246 C-74 -259 -92 -268 -109 -268 C-126 -268 -130 -258 -130 -252 C-130 -248 -130 -247 -125 -241 C-119 -234 -117 -228 -117 -220 C-117 -200 -131 -187 -151 -187 C-170 -187 -189 -201 -189 -227 C-189 -265 -147 -283 -112 -283 C-79 -283 -37 -270 4 -230 C74 -162 99 -65 123 30 L176 257 C184 296 195 346 240 380 C260 396 286 406 307 406 C337 406 372 388 372 340 C372 320 364 294 350 277 C329 249 302 245 274 245 L240 245 L236 225 C303 223 310 223 323 217 C361 201 361 160 361 148 C361 107 339 7 257 7 C232 7 208 20 208 33 C208 40 214 44 219 48 C228 55 240 66 240 82 C240 97 228 115 205 115 C174 115 159 90 159 69 C159 49 172 31 188 17 C218 -7 250 -10 284 -10 C323 -10 366 -5 407 33 C424 48 452 80 452 129 C452 215 376 228 335 234 C427 246 458 298 458 335 C458 389 403 424 331 424 C276 424 236 403 206 371 L199 363 L233 515 C255 596 271 652 317 685 C338 700 357 704 372 704 C382 704 408 701 408 687 C408 681 404 676 402 674 C394 666 388 659 388 646 C388 624 410 609 433 609 C462 609 476 631 476 652 C476 667 465 718 377 718 C296 718 232 677 188 607 C142 535 117 426 95 323 L7 -65 Z " />
<glyph glyph-name="agrave" unicode="&#xe0;" horiz-adv-x="521" d="M363 361 C359 371 353 384 337 398 C320 413 295 424 265 424 C165 424 34 305 34 152 C34 42 111 -12 176 -12 C253 -12 292 50 304 69 C308 15 338 -10 374 -10 C447 -10 504 92 521 135 L506 141 C479 90 469 72 446 48 C430 32 416 25 406 25 C389 25 385 37 385 50 C385 54 390 91 402 141 L466 412 L375 412 L363 361 Z M325 192 C312 137 281 9 192 9 C143 9 124 50 124 97 C124 154 159 274 182 320 C211 378 250 402 280 402 C317 402 348 369 348 315 C348 286 333 223 325 192 L325 192 Z M198 650 C206 632 215 616 262 572 L348 493 L359 501 L281 650 L198 650 Z " />
<glyph glyph-name="aacute" unicode="&#xe1;" horiz-adv-x="521" d="M363 361 C359 371 353 384 337 398 C320 413 295 424 265 424 C165 424 34 305 34 152 C34 42 111 -12 176 -12 C253 -12 292 50 304 69 C308 15 338 -10 374 -10 C447 -10 504 92 521 135 L506 141 C479 90 469 72 446 48 C430 32 416 25 406 25 C389 25 385 37 385 50 C385 54 390 91 402 141 L466 412 L375 412 L363 361 Z M325 192 C312 137 281 9 192 9 C143 9 124 50 124 97 C124 154 159 274 182 320 C211 378 250 402 280 402 C317 402 348 369 348 315 C348 286 333 223 325 192 L325 192 Z M383 650 L252 505 L262 496 L408 588 C451 617 461 625 476 650 L383 650 Z " />
<glyph glyph-name="acircumflex" unicode="&#xe2;" horiz-adv-x="521" d="M363 361 C359 371 353 384 337 398 C320 413 295 424 265 424 C165 424 34 305 34 152 C34 42 111 -12 176 -12 C253 -12 292 50 304 69 C308 15 338 -10 374 -10 C447 -10 504 92 521 135 L506 141 C479 90 469 72 446 48 C430 32 416 25 406 25 C389 25 385 37 385 50 C385 54 390 91 402 141 L466 412 L375 412 L363 361 Z M325 192 C312 137 281 9 192 9 C143 9 124 50 124 97 C124 154 159 274 182 320 C211 378 250 402 280 402 C317 402 348 369 348 315 C348 286 333 223 325 192 L325 192 Z M443 498 L454 507 L367 648 L177 510 L188 496 L349 564 L443 498 Z " />
<glyph glyph-name="atilde" unicode="&#xe3;" horiz-adv-x="521" d="M363 361 C359 371 353 384 337 398 C320 413 295 424 265 424 C165 424 34 305 34 152 C34 42 111 -12 176 -12 C253 -12 292 50 304 69 C308 15 338 -10 374 -10 C447 -10 504 92 521 135 L506 141 C479 90 469 72 446 48 C430 32 416 25 406 25 C389 25 385 37 385 50 C385 54 390 91 402 141 L466 412 L375 412 L363 361 Z M325 192 C312 137 281 9 192 9 C143 9 124 50 124 97 C124 154 159 274 182 320 C211 378 250 402 280 402 C317 402 348 369 348 315 C348 286 333 223 325 192 L325 192 Z M212 547 C220 556 237 576 268 576 C287 576 312 569 323 565 L346 557 C359 553 373 548 392 548 C438 548 479 585 496 624 L473 624 C450 596 428 596 421 596 C408 596 389 603 368 609 C347 615 325 623 304 623 C290 623 235 621 187 547 L212 547 Z " />
<glyph glyph-name="adieresis" unicode="&#xe4;" horiz-adv-x="521" d="M363 361 C359 371 353 384 337 398 C320 413 295 424 265 424 C165 424 34 305 34 152 C34 42 111 -12 176 -12 C253 -12 292 50 304 69 C308 15 338 -10 374 -10 C447 -10 504 92 521 135 L506 141 C479 90 469 72 446 48 C430 32 416 25 406 25 C389 25 385 37 385 50 C385 54 390 91 402 141 L466 412 L375 412 L363 361 Z M325 192 C312 137 281 9 192 9 C143 9 124 50 124 97 C124 154 159 274 182 320 C211 378 250 402 280 402 C317 402 348 369 348 315 C348 286 333 223 325 192 L325 192 Z M188 574 C188 545 212 521 241 521 C270 521 294 545 294 574 C294 603 270 627 241 627 C212 627 188 603 188 574 L188 574 Z M388 573 C388 544 412 520 441 520 C470 520 494 544 494 573 C494 602 470 626 441 626 C412 626 388 602 388 573 L388 573 Z " />
<glyph glyph-name="aring" unicode="&#xe5;" horiz-adv-x="521" d="M363 361 C359 371 353 384 337 398 C320 413 295 424 265 424 C165 424 34 305 34 152 C34 42 111 -12 176 -12 C253 -12 292 50 304 69 C308 15 338 -10 374 -10 C447 -10 504 92 521 135 L506 141 C479 90 469 72 446 48 C430 32 416 25 406 25 C389 25 385 37 385 50 C385 54 390 91 402 141 L466 412 L375 412 L363 361 Z M325 192 C312 137 281 9 192 9 C143 9 124 50 124 97 C124 154 159 274 182 320 C211 378 250 402 280 402 C317 402 348 369 348 315 C348 286 333 223 325 192 L325 192 Z M251 573 C251 528 288 491 333 491 C378 491 415 528 415 573 C415 618 378 655 333 655 C288 655 251 618 251 573 L251 573 Z M283 574 C283 602 306 625 334 625 C362 625 385 602 385 574 C385 546 362 523 334 523 C306 523 283 546 283 574 L283 574 Z " />
<glyph glyph-name="ae" unicode="&#xe6;" horiz-adv-x="708" d="M507 192 C586 205 694 250 694 331 C694 390 641 424 585 424 C513 424 468 368 445 339 L461 412 L376 412 L362 352 C338 412 293 424 261 424 C154 424 35 290 35 155 C35 59 99 -12 175 -12 C207 -12 247 1 284 41 C297 54 300 59 332 104 C348 72 388 -12 488 -12 C575 -12 642 60 668 105 L652 114 C614 69 564 11 504 11 C443 11 420 74 420 134 C420 154 421 166 424 181 L507 192 Z M426 197 C448 332 513 405 570 405 C609 405 625 376 625 349 C625 316 602 273 556 241 C514 212 473 205 426 197 L426 197 Z M316 169 C290 88 254 6 189 6 C156 6 129 34 129 92 C129 188 168 289 191 334 C220 390 248 404 275 404 C319 404 343 362 343 307 C343 259 327 203 316 169 L316 169 Z " />
<glyph glyph-name="ccedilla" unicode="&#xe7;" horiz-adv-x="396" d="M129 -86 C175 -92 183 -122 183 -135 C183 -160 158 -193 116 -193 C106 -193 75 -190 75 -170 C75 -167 78 -154 78 -151 C78 -144 73 -130 58 -130 C46 -130 36 -141 36 -156 C36 -181 68 -215 139 -215 C233 -215 255 -160 255 -139 C255 -124 247 -108 234 -97 C211 -77 182 -76 164 -76 L210 -12 C234 -10 282 -5 338 48 C364 73 376 92 386 107 L371 120 C335 72 286 8 214 8 C134 8 134 97 134 116 C134 187 161 285 193 335 C219 377 258 407 300 407 C337 407 349 381 349 376 C349 369 345 367 339 364 C333 360 314 347 314 325 C314 302 336 288 353 288 C372 288 403 305 403 342 C403 381 366 424 291 424 C243 424 150 400 89 316 C56 272 37 217 37 168 C37 73 102 -4 185 -11 L129 -86 Z " />
<glyph glyph-name="egrave" unicode="&#xe8;" horiz-adv-x="437" d="M365 107 C316 55 273 9 210 9 C130 9 130 91 130 111 C130 153 135 175 139 189 C222 186 424 211 424 330 C424 386 370 424 299 424 C245 424 157 399 99 331 C60 286 37 223 37 165 C37 60 109 -12 198 -12 C253 -12 319 16 380 97 L365 107 Z M143 205 C152 263 194 405 295 405 C329 405 352 384 352 350 C352 295 275 208 143 205 L143 205 Z M157 650 C165 632 174 616 221 572 L307 493 L318 501 L240 650 L157 650 Z " />
<glyph glyph-name="eacute" unicode="&#xe9;" horiz-adv-x="437" d="M365 107 C316 55 273 9 210 9 C130 9 130 91 130 111 C130 153 135 175 139 189 C222 186 424 211 424 330 C424 386 370 424 299 424 C245 424 157 399 99 331 C60 286 37 223 37 165 C37 60 109 -12 198 -12 C253 -12 319 16 380 97 L365 107 Z M143 205 C152 263 194 405 295 405 C329 405 352 384 352 350 C352 295 275 208 143 205 L143 205 Z M342 650 L211 505 L221 496 L367 588 C410 617 420 625 435 650 L342 650 Z " />
<glyph glyph-name="ecircumflex" unicode="&#xea;" horiz-adv-x="437" d="M365 107 C316 55 273 9 210 9 C130 9 130 91 130 111 C130 153 135 175 139 189 C222 186 424 211 424 330 C424 386 370 424 299 424 C245 424 157 399 99 331 C60 286 37 223 37 165 C37 60 109 -12 198 -12 C253 -12 319 16 380 97 L365 107 Z M143 205 C152 263 194 405 295 405 C329 405 352 384 352 350 C352 295 275 208 143 205 L143 205 Z M407 498 L418 507 L331 648 L141 510 L152 496 L313 564 L407 498 Z " />
<glyph glyph-name="edieresis" unicode="&#xeb;" horiz-adv-x="437" d="M365 107 C316 55 273 9 210 9 C130 9 130 91 130 111 C130 153 135 175 139 189 C222 186 424 211 424 330 C424 386 370 424 299 424 C245 424 157 399 99 331 C60 286 37 223 37 165 C37 60 109 -12 198 -12 C253 -12 319 16 380 97 L365 107 Z M143 205 C152 263 194 405 295 405 C329 405 352 384 352 350 C352 295 275 208 143 205 L143 205 Z M155 575 C155 546 179 522 208 522 C237 522 261 546 261 575 C261 604 237 628 208 628 C179 628 155 604 155 575 L155 575 Z M355 574 C355 545 379 521 408 521 C437 521 461 545 461 574 C461 603 437 627 408 627 C379 627 355 603 355 574 L355 574 Z " />
<glyph glyph-name="igrave" unicode="&#xec;" horiz-adv-x="271" d="M26 392 L117 392 L53 119 C44 80 42 70 42 56 C42 -10 110 -10 114 -10 C165 -10 208 27 237 72 C253 97 262 118 267 133 L249 140 C242 122 222 74 191 44 C182 35 164 22 151 22 C137 22 130 34 130 49 C130 60 134 73 137 87 L214 412 L31 412 L26 392 Z M73 650 C81 632 90 616 137 572 L223 493 L234 501 L156 650 L73 650 Z " />
<glyph glyph-name="iacute" unicode="&#xed;" horiz-adv-x="271" d="M26 392 L117 392 L53 119 C44 80 42 70 42 56 C42 -10 110 -10 114 -10 C165 -10 208 27 237 72 C253 97 262 118 267 133 L249 140 C242 122 222 74 191 44 C182 35 164 22 151 22 C137 22 130 34 130 49 C130 60 134 73 137 87 L214 412 L31 412 L26 392 Z M248 650 L117 505 L127 496 L273 588 C316 617 326 625 341 650 L248 650 Z " />
<glyph glyph-name="icircumflex" unicode="&#xee;" horiz-adv-x="271" d="M26 392 L117 392 L53 119 C44 80 42 70 42 56 C42 -10 110 -10 114 -10 C165 -10 208 27 237 72 C253 97 262 118 267 133 L249 140 C242 122 222 74 191 44 C182 35 164 22 151 22 C137 22 130 34 130 49 C130 60 134 73 137 87 L214 412 L31 412 L26 392 Z M297 498 L308 507 L221 648 L31 510 L42 496 L203 564 L297 498 Z " />
<glyph glyph-name="idieresis" unicode="&#xef;" horiz-adv-x="271" d="M26 392 L117 392 L53 119 C44 80 42 70 42 56 C42 -10 110 -10 114 -10 C165 -10 208 27 237 72 C253 97 262 118 267 133 L249 140 C242 122 222 74 191 44 C182 35 164 22 151 22 C137 22 130 34 130 49 C130 60 134 73 137 87 L214 412 L31 412 L26 392 Z M45 575 C45 546 69 522 98 522 C127 522 151 546 151 575 C151 604 127 628 98 628 C69 628 45 604 45 575 L45 575 Z M245 574 C245 545 269 521 298 521 C327 521 351 545 351 574 C351 603 327 627 298 627 C269 627 245 603 245 574 L245 574 Z " />
<glyph glyph-name="eth" unicode="&#xf0;" horiz-adv-x="479" d="M195 538 L201 515 L339 552 C347 527 362 480 362 390 C339 416 310 426 275 426 C169 426 38 316 38 168 C38 76 93 -12 202 -12 C351 -12 462 142 462 349 C462 427 443 503 402 569 L477 589 L471 612 L388 590 C352 640 305 681 253 714 L239 697 C300 647 322 596 331 575 L195 538 Z M354 326 C355 275 344 229 333 180 C317 115 291 5 202 5 C179 5 124 13 124 101 C124 158 155 291 188 347 C205 375 235 409 282 409 C303 409 323 402 337 384 C353 365 354 342 354 326 L354 326 Z " />
<glyph glyph-name="ntilde" unicode="&#xf1;" horiz-adv-x="521" d="M31 412 L27 392 L118 392 L27 0 L115 0 L154 166 C166 211 184 279 229 334 C260 371 294 386 318 386 C335 386 356 378 356 349 C356 339 353 329 351 318 L299 94 C296 80 294 69 294 56 C294 11 330 -10 366 -10 C445 -10 500 92 519 134 L503 142 C484 106 468 75 440 46 C430 35 418 24 403 24 C393 24 383 31 383 48 C383 55 383 56 391 94 L439 304 C442 319 446 335 446 351 C446 399 407 424 360 424 C300 424 229 381 185 303 L210 412 L31 412 Z M191 547 C199 556 216 576 247 576 C266 576 291 569 302 565 L325 557 C338 553 352 548 371 548 C417 548 458 585 475 624 L452 624 C429 596 407 596 400 596 C387 596 368 603 347 609 C326 615 304 623 283 623 C269 623 214 621 166 547 L191 547 Z " />
<glyph glyph-name="ograve" unicode="&#xf2;" horiz-adv-x="479" d="M394 98 C425 144 445 195 445 247 C445 335 380 424 281 424 C173 424 37 311 37 171 C37 67 114 -12 208 -12 C266 -12 338 18 394 98 L394 98 Z M337 208 C325 152 303 74 272 39 C255 19 229 5 201 5 C167 5 127 28 127 99 C127 166 163 300 191 346 C211 379 242 406 280 406 C331 406 351 368 351 319 C351 286 346 246 337 208 L337 208 Z M177 650 C185 632 194 616 241 572 L327 493 L338 501 L260 650 L177 650 Z " />
<glyph glyph-name="oacute" unicode="&#xf3;" horiz-adv-x="479" d="M394 98 C425 144 445 195 445 247 C445 335 380 424 281 424 C173 424 37 311 37 171 C37 67 114 -12 208 -12 C266 -12 338 18 394 98 L394 98 Z M337 208 C325 152 303 74 272 39 C255 19 229 5 201 5 C167 5 127 28 127 99 C127 166 163 300 191 346 C211 379 242 406 280 406 C331 406 351 368 351 319 C351 286 346 246 337 208 L337 208 Z M362 650 L231 505 L241 496 L387 588 C430 617 440 625 455 650 L362 650 Z " />
<glyph glyph-name="ocircumflex" unicode="&#xf4;" horiz-adv-x="479" d="M394 98 C425 144 445 195 445 247 C445 335 380 424 281 424 C173 424 37 311 37 171 C37 67 114 -12 208 -12 C266 -12 338 18 394 98 L394 98 Z M337 208 C325 152 303 74 272 39 C255 19 229 5 201 5 C167 5 127 28 127 99 C127 166 163 300 191 346 C211 379 242 406 280 406 C331 406 351 368 351 319 C351 286 346 246 337 208 L337 208 Z M422 498 L433 507 L346 648 L156 510 L167 496 L328 564 L422 498 Z " />
<glyph glyph-name="otilde" unicode="&#xf5;" horiz-adv-x="479" d="M394 98 C425 144 445 195 445 247 C445 335 380 424 281 424 C173 424 37 311 37 171 C37 67 114 -12 208 -12 C266 -12 338 18 394 98 L394 98 Z M337 208 C325 152 303 74 272 39 C255 19 229 5 201 5 C167 5 127 28 127 99 C127 166 163 300 191 346 C211 379 242 406 280 406 C331 406 351 368 351 319 C351 286 346 246 337 208 L337 208 Z M191 547 C199 556 216 576 247 576 C266 576 291 569 302 565 L325 557 C338 553 352 548 371 548 C417 548 458 585 475 624 L452 624 C429 596 407 596 400 596 C387 596 368 603 347 609 C326 615 304 623 283 623 C269 623 214 621 166 547 L191 547 Z " />
<glyph glyph-name="odieresis" unicode="&#xf6;" horiz-adv-x="479" d="M394 98 C425 144 445 195 445 247 C445 335 380 424 281 424 C173 424 37 311 37 171 C37 67 114 -12 208 -12 C266 -12 338 18 394 98 L394 98 Z M337 208 C325 152 303 74 272 39 C255 19 229 5 201 5 C167 5 127 28 127 99 C127 166 163 300 191 346 C211 379 242 406 280 406 C331 406 351 368 351 319 C351 286 346 246 337 208 L337 208 Z M170 574 C170 545 194 521 223 521 C252 521 276 545 276 574 C276 603 252 627 223 627 C194 627 170 603 170 574 L170 574 Z M370 573 C370 544 394 520 423 520 C452 520 476 544 476 573 C476 602 452 626 423 626 C394 626 370 602 370 573 L370 573 Z " />
<glyph glyph-name="divide" unicode="&#xf7;" horiz-adv-x="667" d="M318 412 C318 390 335 373 357 373 C379 373 396 390 396 412 C396 434 379 451 357 451 C335 451 318 434 318 412 L318 412 Z M22 314 L22 268 L689 268 L689 314 L22 314 Z M318 170 C318 148 335 131 357 131 C379 131 396 148 396 170 C396 192 379 209 357 209 C335 209 318 192 318 170 L318 170 Z " />
<glyph glyph-name="oslash" unicode="&#xf8;" horiz-adv-x="479" d="M412 422 L381 387 C347 418 307 424 282 424 C185 424 36 319 36 171 C36 155 38 87 87 40 L57 2 L72 -10 L103 25 C145 -8 184 -12 203 -12 C239 -12 291 5 328 31 C374 63 446 147 446 247 C446 319 408 360 397 372 L428 408 L412 422 Z M123 82 C122 110 120 151 162 277 C173 312 204 405 285 405 C299 405 337 405 354 355 L123 82 Z M358 326 C355 218 310 98 292 67 C274 36 245 6 197 6 C157 6 139 33 129 56 L358 326 Z " />
<glyph glyph-name="ugrave" unicode="&#xf9;" horiz-adv-x="521" d="M340 258 C325 203 299 102 220 44 C204 31 183 20 167 20 C152 20 131 30 131 60 C131 78 140 111 143 126 L210 412 L27 412 L22 392 L114 392 L54 134 C49 115 44 93 44 73 C44 24 78 -12 134 -12 C198 -12 264 37 302 108 C299 95 297 86 297 68 C297 53 297 -10 364 -10 C444 -10 497 92 517 135 L502 144 C481 104 462 66 430 40 C424 36 410 25 398 25 C391 25 382 29 382 46 C382 60 386 76 390 95 L464 412 L376 412 L340 258 Z M198 650 C206 632 215 616 262 572 L348 493 L359 501 L281 650 L198 650 Z " />
<glyph glyph-name="uacute" unicode="&#xfa;" horiz-adv-x="521" d="M340 258 C325 203 299 102 220 44 C204 31 183 20 167 20 C152 20 131 30 131 60 C131 78 140 111 143 126 L210 412 L27 412 L22 392 L114 392 L54 134 C49 115 44 93 44 73 C44 24 78 -12 134 -12 C198 -12 264 37 302 108 C299 95 297 86 297 68 C297 53 297 -10 364 -10 C444 -10 497 92 517 135 L502 144 C481 104 462 66 430 40 C424 36 410 25 398 25 C391 25 382 29 382 46 C382 60 386 76 390 95 L464 412 L376 412 L340 258 Z M383 650 L252 505 L262 496 L408 588 C451 617 461 625 476 650 L383 650 Z " />
<glyph glyph-name="ucircumflex" unicode="&#xfb;" horiz-adv-x="521" d="M340 258 C325 203 299 102 220 44 C204 31 183 20 167 20 C152 20 131 30 131 60 C131 78 140 111 143 126 L210 412 L27 412 L22 392 L114 392 L54 134 C49 115 44 93 44 73 C44 24 78 -12 134 -12 C198 -12 264 37 302 108 C299 95 297 86 297 68 C297 53 297 -10 364 -10 C444 -10 497 92 517 135 L502 144 C481 104 462 66 430 40 C424 36 410 25 398 25 C391 25 382 29 382 46 C382 60 386 76 390 95 L464 412 L376 412 L340 258 Z M422 498 L433 507 L346 648 L156 510 L167 496 L328 564 L422 498 Z " />
<glyph glyph-name="udieresis" unicode="&#xfc;" horiz-adv-x="521" d="M340 258 C325 203 299 102 220 44 C204 31 183 20 167 20 C152 20 131 30 131 60 C131 78 140 111 143 126 L210 412 L27 412 L22 392 L114 392 L54 134 C49 115 44 93 44 73 C44 24 78 -12 134 -12 C198 -12 264 37 302 108 C299 95 297 86 297 68 C297 53 297 -10 364 -10 C444 -10 497 92 517 135 L502 144 C481 104 462 66 430 40 C424 36 410 25 398 25 C391 25 382 29 382 46 C382 60 386 76 390 95 L464 412 L376 412 L340 258 Z M166 575 C166 546 190 522 219 522 C248 522 272 546 272 575 C272 604 248 628 219 628 C190 628 166 604 166 575 L166 575 Z M366 574 C366 545 390 521 419 521 C448 521 472 545 472 574 C472 603 448 627 419 627 C390 627 366 603 366 574 L366 574 Z " />
<glyph glyph-name="yacute" unicode="&#xfd;" horiz-adv-x="500" d="M284 94 L221 326 C212 358 202 391 186 405 C172 418 156 422 141 422 C119 422 99 412 84 399 C53 373 23 313 9 278 L25 270 C28 275 47 315 49 318 C69 358 87 375 99 375 C116 375 122 353 130 327 L198 85 C211 41 218 14 218 -9 C218 -65 152 -158 102 -204 C74 -230 35 -257 17 -257 C9 -257 3 -251 3 -247 C3 -245 5 -234 5 -232 C5 -219 -3 -198 -31 -198 C-59 -198 -76 -217 -76 -239 C-76 -263 -52 -286 -14 -286 C25 -286 108 -258 194 -131 C261 -31 315 108 353 206 L396 317 C408 348 411 358 422 358 C427 358 430 355 434 351 C438 347 445 339 460 339 C477 339 499 354 499 379 C499 399 484 422 455 422 C414 422 399 386 386 354 C376 330 364 299 341 242 L284 94 Z M374 650 L243 505 L253 496 L399 588 C442 617 452 625 467 650 L374 650 Z " />
<glyph glyph-name="thorn" unicode="&#xfe;" horiz-adv-x="500" d="M93 706 L88 686 L178 686 L-34 -267 L-98 -267 L-103 -288 L136 -288 L142 -267 L57 -267 L128 52 C137 33 158 -12 228 -12 C352 -12 465 124 465 253 C465 359 393 424 324 424 C281 424 231 399 192 336 L275 706 L93 706 Z M337 133 C308 53 265 10 217 10 C172 10 143 52 143 105 C143 149 192 401 310 401 C337 401 375 384 375 317 C375 262 351 172 337 133 L337 133 Z " />
<glyph glyph-name="ydieresis" unicode="&#xff;" horiz-adv-x="500" d="M284 94 L221 326 C212 358 202 391 186 405 C172 418 156 422 141 422 C119 422 99 412 84 399 C53 373 23 313 9 278 L25 270 C28 275 47 315 49 318 C69 358 87 375 99 375 C116 375 122 353 130 327 L198 85 C211 41 218 14 218 -9 C218 -65 152 -158 102 -204 C74 -230 35 -257 17 -257 C9 -257 3 -251 3 -247 C3 -245 5 -234 5 -232 C5 -219 -3 -198 -31 -198 C-59 -198 -76 -217 -76 -239 C-76 -263 -52 -286 -14 -286 C25 -286 108 -258 194 -131 C261 -31 315 108 353 206 L396 317 C408 348 411 358 422 358 C427 358 430 355 434 351 C438 347 445 339 460 339 C477 339 499 354 499 379 C499 399 484 422 455 422 C414 422 399 386 386 354 C376 330 364 299 341 242 L284 94 Z M161 575 C161 546 185 522 214 522 C243 522 267 546 267 575 C267 604 243 628 214 628 C185 628 161 604 161 575 L161 575 Z M361 574 C361 545 385 521 414 521 C443 521 467 545 467 574 C467 603 443 627 414 627 C385 627 361 603 361 574 L361 574 Z " />
<glyph glyph-name="dotlessi" unicode="&#x131;" horiz-adv-x="271" d="M26 392 L117 392 L53 119 C44 80 42 70 42 56 C42 -10 110 -10 114 -10 C165 -10 208 27 237 72 C253 97 262 118 267 133 L249 140 C242 122 222 74 191 44 C182 35 164 22 151 22 C137 22 130 34 130 49 C130 60 134 73 137 87 L214 412 L31 412 L26 392 Z " />
<glyph glyph-name="Lslash" unicode="&#x141;" horiz-adv-x="562" d="M526 206 C506 143 478 97 456 71 C416 26 380 21 306 21 L183 21 L256 358 L425 495 L435 544 L266 406 L327 685 L413 685 L418 706 L125 706 L120 685 L214 685 L130 296 L31 216 L21 168 L120 247 L70 21 L-14 21 L-20 0 L504 0 L547 206 L526 206 Z " />
<glyph glyph-name="lslash" unicode="&#x142;" horiz-adv-x="271" d="M88 687 L184 687 L94 313 L12 220 L-2 163 L81 256 L60 163 C55 141 42 83 42 54 C42 25 60 -10 108 -10 C189 -10 240 75 264 132 L248 140 C228 102 187 24 149 24 C138 24 127 30 127 47 C127 54 131 73 134 86 L206 392 L293 488 L305 545 L219 449 L280 707 L95 707 L88 687 Z " />
<glyph glyph-name="OE" unicode="&#x152;" horiz-adv-x="1021" d="M789 220 L810 220 L870 500 L851 500 L846 477 C829 415 813 377 710 378 L670 378 L735 685 L858 685 C907 685 943 684 970 661 C989 644 1004 612 1004 572 C1004 558 1003 545 1000 529 L1020 529 L1056 706 L634 706 L616 627 C595 660 548 721 442 721 C253 721 68 497 68 281 C68 143 151 -15 313 -15 C401 -15 462 32 496 58 L483 0 L938 0 L984 213 L963 213 C909 34 821 23 688 21 L593 21 L665 356 L713 356 C744 355 800 354 800 288 C800 272 797 255 793 239 L789 220 Z M534 299 C514 220 478 101 413 46 C385 23 347 7 313 7 C280 7 185 24 185 183 C185 355 245 528 291 601 C326 656 376 701 440 701 C478 701 511 683 532 656 C563 616 565 560 565 532 C565 435 545 346 534 299 L534 299 Z " />
<glyph glyph-name="oe" unicode="&#x153;" horiz-adv-x="729" d="M656 107 C630 77 571 10 506 10 C425 10 425 93 425 112 C425 140 429 162 433 188 C539 186 716 221 716 329 C716 391 654 424 590 424 C549 424 500 409 464 389 C438 375 419 359 410 351 C369 419 298 424 277 424 C160 424 37 295 37 170 C37 74 109 -12 205 -12 C263 -12 315 17 358 57 C377 34 414 -12 488 -12 C586 -12 655 75 671 96 L656 107 Z M437 205 C446 249 464 303 487 339 C510 376 544 406 586 406 C616 406 644 388 644 352 C644 321 619 269 557 236 C511 212 463 207 437 205 L437 205 Z M329 183 C312 115 281 5 203 5 C170 5 130 25 130 101 C130 167 162 296 196 350 C215 380 245 406 282 406 C332 406 349 364 349 316 C349 272 337 218 329 183 L329 183 Z " />
<glyph glyph-name="Scaron" unicode="&#x160;" horiz-adv-x="542" d="M18 0 L33 0 L93 57 C120 31 181 -14 263 -14 C412 -14 504 114 504 231 C504 346 423 392 345 437 L314 454 C240 498 197 523 197 578 C197 632 252 697 340 697 C394 697 450 668 474 618 C491 582 489 541 488 510 L510 510 L555 707 L539 707 L492 658 C477 674 434 721 342 721 C219 721 134 634 134 512 C134 410 201 368 264 331 L307 304 C368 265 433 224 433 153 C433 85 370 14 269 14 C203 14 147 44 114 101 C84 151 84 199 85 229 L62 229 L18 0 Z M560 896 L403 845 L314 896 L300 887 L388 766 L571 882 L560 896 Z " />
<glyph glyph-name="scaron" unicode="&#x161;" horiz-adv-x="354" d="M179 275 C153 294 127 315 127 347 C127 383 162 408 207 408 C235 408 254 399 254 386 C254 382 252 379 249 376 C244 370 238 361 238 350 C238 333 250 318 272 318 C285 318 309 326 309 355 C309 394 263 424 207 424 C125 424 60 366 60 300 C60 248 93 222 153 173 L180 151 C203 133 230 110 230 81 C230 54 202 6 124 6 C83 6 65 23 65 31 C65 36 67 39 70 42 C85 60 86 71 86 79 C86 102 72 117 49 117 C23 117 10 97 10 74 C10 34 55 -12 130 -12 C228 -12 297 54 297 128 C297 188 251 222 220 245 L179 275 Z M146 650 L134 641 L221 499 L412 636 L401 651 L240 583 L146 650 Z " />
<glyph glyph-name="Ydieresis" unicode="&#x178;" horiz-adv-x="667" d="M758 685 L762 706 L556 706 L551 685 L646 685 L432 359 L315 685 L407 685 L412 706 L118 706 L112 685 L197 685 L328 324 L261 21 L174 21 L170 0 L463 0 L468 21 L377 21 L444 331 L678 685 L758 685 Z M623 820 C624 850 603 876 571 876 C539 876 516 852 516 821 C516 790 541 769 570 769 C603 769 621 794 623 820 L623 820 Z M422 821 C423 850 400 876 368 876 C339 876 316 851 316 823 C316 799 332 769 370 769 C405 769 421 798 422 821 L422 821 Z " />
<glyph glyph-name="Zcaron" unicode="&#x17d;" horiz-adv-x="583" d="M539 220 C518 156 489 110 474 90 C429 30 385 23 300 21 L143 21 L637 685 L637 706 L176 706 L136 521 L155 521 C210 673 261 685 366 685 L500 685 L11 27 L11 0 L510 0 L559 220 L539 220 Z M601 896 L444 845 L355 896 L341 887 L429 766 L612 882 L601 896 Z " />
<glyph glyph-name="zcaron" unicode="&#x17e;" horiz-adv-x="417" d="M45 264 L63 257 L93 323 C112 321 127 320 153 320 C224 320 278 334 328 349 L106 121 C55 69 23 32 19 26 C14 18 11 10 11 4 C11 -5 17 -12 27 -12 C39 -12 45 -1 45 7 L44 20 C44 29 48 41 64 41 C72 41 78 39 93 35 L159 15 C191 5 214 -2 257 -2 C274 -2 320 -2 359 46 C377 69 385 94 385 117 C385 150 367 173 344 173 C325 173 313 157 313 141 C313 121 330 112 350 112 C356 112 365 112 365 98 C365 79 350 54 317 54 C302 54 289 59 275 64 L246 74 C210 86 175 97 136 97 C125 97 119 96 106 95 L368 360 C385 377 403 395 403 411 C403 421 395 426 389 426 C380 426 367 411 368 387 C349 386 332 384 301 384 C236 384 172 391 112 416 L45 264 Z M176 650 L164 641 L251 499 L442 636 L431 651 L270 583 L176 650 Z " />
<glyph glyph-name="florin" unicode="&#x192;" horiz-adv-x="375" d="M338 412 L244 412 L251 449 C277 564 296 627 341 662 C350 668 363 677 381 677 C392 677 395 671 395 667 C395 661 392 659 385 654 C383 653 370 644 370 627 C370 609 385 591 409 591 C437 591 456 614 456 638 C456 670 427 695 382 695 C358 695 304 687 248 626 C187 558 168 486 149 412 L55 412 L49 386 L143 386 L35 -102 C19 -175 -2 -267 -71 -267 C-76 -267 -94 -266 -94 -254 C-94 -250 -93 -249 -88 -240 C-83 -233 -81 -227 -81 -220 C-81 -212 -87 -188 -114 -188 C-141 -188 -153 -210 -153 -229 C-153 -261 -120 -284 -73 -284 C-27 -284 13 -260 45 -226 C115 -150 141 -43 161 42 L237 386 L333 386 L338 412 Z " />
<glyph glyph-name="circumflex" unicode="&#x2c6;" horiz-adv-x="271" d="M263 498 L274 507 L187 648 L-3 510 L8 496 L169 564 L263 498 Z " />
<glyph glyph-name="caron" unicode="&#x2c7;" horiz-adv-x="271" d="M9 650 L-3 641 L84 499 L275 636 L264 651 L103 583 L9 650 Z " />
<glyph glyph-name="breve" unicode="&#x2d8;" horiz-adv-x="271" d="M19 647 C15 624 14 613 14 605 C14 554 46 523 95 523 C120 523 208 532 256 647 L236 647 C201 608 158 580 107 580 C58 580 38 619 37 647 L19 647 Z " />
<glyph glyph-name="dotaccent" unicode="&#x2d9;" horiz-adv-x="271" d="M82 574 C82 545 106 521 135 521 C164 521 188 545 188 574 C188 603 164 627 135 627 C106 627 82 603 82 574 L82 574 Z " />
<glyph glyph-name="ring" unicode="&#x2da;" horiz-adv-x="271" d="M53 573 C53 528 90 491 135 491 C180 491 217 528 217 573 C217 618 180 655 135 655 C90 655 53 618 53 573 L53 573 Z M85 574 C85 602 108 625 136 625 C164 625 187 602 187 574 C187 546 164 523 136 523 C108 523 85 546 85 574 L85 574 Z " />
<glyph glyph-name="ogonek" unicode="&#x2db;" horiz-adv-x="271" d="M222 -116 C203 -123 191 -126 179 -126 C151 -126 114 -109 114 -74 C114 -55 123 -39 168 -2 L197 21 L144 2 C103 -17 49 -42 49 -97 C49 -137 81 -157 124 -157 C164 -157 197 -145 217 -138 L222 -116 Z " />
<glyph glyph-name="tilde" unicode="&#x2dc;" horiz-adv-x="271" d="M6 547 C14 556 31 576 62 576 C81 576 106 569 117 565 L140 557 C153 553 167 548 186 548 C232 548 273 585 290 624 L267 624 C244 596 222 596 215 596 C202 596 183 603 162 609 C141 615 119 623 98 623 C84 623 29 621 -19 547 L6 547 Z " />
<glyph glyph-name="hungarumlaut" unicode="&#x2dd;" horiz-adv-x="271" d="M75 650 L-55 506 L-46 495 L105 591 C140 614 156 626 169 650 L75 650 Z M232 650 L102 505 L111 496 L259 589 C311 622 320 638 326 650 L232 650 Z " />
<glyph glyph-name="endash" unicode="&#x2013;" horiz-adv-x="521" d="M26 244 L509 244 L524 316 L42 316 L26 244 Z " />
<glyph glyph-name="emdash" unicode="&#x2014;" horiz-adv-x="583" d="M25 245 L573 245 L588 315 L40 315 L25 245 Z " />
<glyph glyph-name="quoteleft" unicode="&#x2018;" horiz-adv-x="229" d="M257 715 C120 650 106 571 106 539 C106 493 137 450 188 450 C224 450 255 473 255 510 C255 544 232 567 201 567 C179 567 168 555 162 547 C159 544 157 542 153 542 C147 542 142 548 142 558 C142 567 147 584 160 605 C189 649 235 675 270 695 L257 715 Z " />
<glyph glyph-name="quoteright" unicode="&#x2019;" horiz-adv-x="229" d="M134 447 C206 480 285 542 285 623 C285 669 254 712 202 712 C167 712 136 689 136 651 C136 618 159 595 189 595 C212 595 223 607 229 615 C232 618 234 620 237 620 C244 620 249 614 249 604 C249 594 244 578 231 557 C202 513 159 488 121 467 L134 447 Z " />
<glyph glyph-name="quotesinglbase" unicode="&#x201a;" horiz-adv-x="229" d="M25 -154 C98 -121 176 -58 176 22 C176 68 145 111 94 111 C58 111 27 88 27 50 C27 17 50 -6 80 -6 C103 -6 114 6 120 14 C123 17 125 19 128 19 C135 19 140 13 140 3 C140 -6 135 -23 122 -44 C93 -88 50 -113 12 -134 L25 -154 Z " />
<glyph glyph-name="quotedblleft" unicode="&#x201c;" horiz-adv-x="437" d="M474 715 C401 682 323 619 323 539 C323 492 356 450 405 450 C441 450 472 473 472 511 C472 544 449 567 419 567 C396 567 386 555 379 547 C376 544 374 542 371 542 C364 542 359 548 359 558 C359 567 364 584 377 605 C406 649 449 674 487 695 L474 715 Z M266 715 C194 682 115 619 115 539 C115 493 146 450 197 450 C233 450 264 473 264 510 C264 544 241 567 210 567 C187 567 177 555 170 547 C168 544 166 542 162 542 C156 542 151 548 151 558 C151 567 155 584 169 605 C197 649 241 674 279 695 L266 715 Z " />
<glyph glyph-name="quotedblright" unicode="&#x201d;" horiz-adv-x="437" d="M340 447 C412 480 491 542 491 623 C491 669 460 712 409 712 C373 712 342 689 342 651 C342 618 365 595 396 595 C419 595 429 607 436 615 C438 618 440 620 444 620 C451 620 455 614 455 604 C455 594 451 578 437 557 C409 513 365 488 327 467 L340 447 Z M132 447 C204 480 283 542 283 623 C283 669 252 712 201 712 C165 712 134 689 134 651 C134 618 157 595 187 595 C210 595 221 607 227 615 C230 618 232 620 236 620 C242 620 247 614 247 604 C247 594 242 578 229 557 C200 513 157 488 119 467 L132 447 Z " />
<glyph glyph-name="quotedblbase" unicode="&#x201e;" horiz-adv-x="437" d="M229 -154 C303 -121 381 -58 381 22 C381 68 349 111 298 111 C263 111 232 88 232 50 C232 17 254 -6 285 -6 C308 -6 318 6 325 14 C328 17 330 19 333 19 C340 19 344 13 344 3 C344 -6 340 -23 327 -44 C298 -88 255 -113 217 -134 L229 -154 Z M21 -154 C94 -121 172 -58 172 22 C172 68 141 111 90 111 C54 111 23 88 23 50 C23 17 46 -6 77 -6 C100 -6 110 6 117 14 C119 17 121 19 125 19 C132 19 136 13 136 3 C136 -6 132 -23 118 -44 C90 -88 46 -113 8 -134 L21 -154 Z " />
<glyph glyph-name="dagger" unicode="&#x2020;" horiz-adv-x="583" d="M298 177 C302 204 316 292 332 351 C351 348 379 345 435 328 C498 309 507 306 531 306 C578 306 609 334 609 369 C609 405 578 426 538 426 C515 426 495 420 475 414 C434 401 387 386 342 383 C348 400 354 410 407 503 C437 556 469 612 469 658 C469 692 451 721 412 721 C358 721 330 666 322 567 C321 549 320 532 319 514 C317 485 313 419 305 384 C284 387 271 389 227 402 C153 423 141 427 120 427 C90 427 47 411 47 364 C47 325 84 306 120 306 C137 306 145 306 245 337 C278 346 280 347 297 350 C291 324 283 306 270 275 C256 243 195 102 183 73 C143 -24 101 -144 101 -189 C101 -228 122 -249 153 -249 C204 -249 223 -194 229 -175 C254 -101 276 30 282 68 L298 177 Z " />
<glyph glyph-name="daggerdbl" unicode="&#x2021;" horiz-adv-x="665" d="M297 29 C327 27 371 14 407 4 C438 -5 475 -15 497 -15 C519 -15 573 -6 573 47 C573 96 525 104 501 104 C479 104 457 98 433 91 C404 81 352 64 305 61 C311 83 323 131 373 234 C373 261 375 297 377 328 C380 373 381 387 390 414 C421 410 474 396 490 391 C556 373 564 371 587 371 C633 371 666 395 666 433 C666 473 631 490 596 490 C574 490 550 483 513 472 C464 458 429 449 399 446 C431 497 498 610 498 666 C498 714 459 721 443 721 C422 721 384 712 370 651 C367 637 362 615 362 547 C362 531 363 460 363 446 C337 452 317 457 276 469 C231 481 205 489 177 489 C122 489 106 453 106 428 C106 398 129 370 177 370 C205 370 233 379 270 390 C312 403 330 407 355 413 C345 368 331 331 288 234 C286 150 282 127 271 60 C218 73 212 74 160 90 C136 97 111 104 85 104 C30 104 13 66 13 42 C13 7 44 -16 86 -16 C110 -16 129 -10 158 -1 C167 2 221 18 265 29 C182 -111 159 -161 159 -195 C159 -238 197 -251 219 -251 C294 -251 295 -148 296 -67 L297 29 Z " />
<glyph glyph-name="bullet" unicode="&#x2022;" horiz-adv-x="333" d="M81 353 C81 291 131 241 193 241 C255 241 305 291 305 353 C305 415 255 465 193 465 C131 465 81 415 81 353 L81 353 Z " />
<glyph glyph-name="ellipsis" unicode="&#x2026;" horiz-adv-x="1000" d="M737 55 C737 21 764 -6 798 -6 C832 -6 859 21 859 55 C859 89 832 116 798 116 C764 116 737 89 737 55 L737 55 Z M404 55 C404 21 431 -6 465 -6 C499 -6 526 21 526 55 C526 89 499 116 465 116 C431 116 404 89 404 55 L404 55 Z M71 55 C71 21 98 -6 132 -6 C166 -6 193 21 193 55 C193 89 166 116 132 116 C98 116 71 89 71 55 L71 55 Z " />
<glyph glyph-name="perthousand" unicode="&#x2030;" horiz-adv-x="1188" d="M368 415 C379 452 387 497 387 531 C387 615 346 691 276 691 C185 691 78 546 78 394 C78 300 122 234 192 234 C260 234 333 308 368 415 L368 415 Z M302 455 C290 401 269 314 242 280 C231 267 214 253 191 253 C185 253 139 253 139 321 C139 369 163 482 184 552 C204 621 227 672 276 672 C327 672 327 622 327 606 C327 566 313 505 302 455 L302 455 Z M1151 173 C1162 210 1170 255 1170 289 C1170 374 1129 449 1059 449 C968 449 861 304 861 153 C861 59 905 -7 975 -7 C1043 -7 1117 67 1151 173 L1151 173 Z M1085 213 C1073 160 1052 72 1025 39 C1014 26 997 12 974 12 C968 12 922 12 922 79 C922 128 946 241 967 311 C987 379 1010 430 1059 430 C1110 430 1110 380 1110 364 C1110 325 1096 263 1085 213 L1085 213 Z M796 173 C807 210 815 255 815 289 C815 374 774 449 704 449 C613 449 506 304 506 153 C506 59 550 -7 620 -7 C688 -7 762 67 796 173 L796 173 Z M730 213 C718 160 697 72 670 39 C659 26 642 12 619 12 C613 12 567 12 567 79 C567 128 591 241 612 311 C632 379 655 430 704 430 C755 430 755 380 755 364 C755 325 741 263 730 213 L730 213 Z M287 0 L326 0 L604 683 L564 683 L287 0 Z " />
<glyph glyph-name="guilsinglleft" unicode="&#x2039;" horiz-adv-x="250" d="M199 135 L106 239 L228 337 L170 337 L51 241 L147 135 L199 135 Z " />
<glyph glyph-name="guilsinglright" unicode="&#x203a;" horiz-adv-x="250" d="M65 337 L157 231 L35 135 L94 135 L212 231 L117 337 L65 337 Z " />
<glyph glyph-name="fraction" unicode="&#x2044;" horiz-adv-x="125" d="M-79 0 L-49 0 L235 706 L205 706 L-79 0 Z " />
<glyph glyph-name="trademark" unicode="&#x2122;" horiz-adv-x="771" d="M616 374 L722 623 L722 425 C721 408 713 404 695 402 L689 401 L689 374 C710 375 730 376 751 376 C771 376 791 375 810 374 L810 401 L804 402 C778 405 777 409 777 454 L777 622 C776 662 776 675 809 679 L816 679 L816 706 C772 705 764 706 727 706 L618 451 L514 706 C499 706 484 705 470 705 C455 705 440 706 425 707 L425 679 C440 678 443 677 454 670 L457 666 L457 454 C456 417 456 407 426 402 L420 401 L420 374 C472 375 484 375 533 374 L533 401 L525 402 C497 406 492 411 492 454 L492 625 L598 374 L616 374 Z M211 678 L211 450 C211 414 211 408 183 403 L165 402 L165 374 C190 375 222 376 240 376 C258 376 290 375 315 374 L315 402 L296 403 C270 408 270 413 269 450 L269 678 L301 678 C336 677 344 668 359 624 L384 624 C381 659 380 672 380 706 C333 706 286 705 240 705 C194 705 147 706 101 706 C100 672 99 663 97 624 L121 624 C136 668 144 677 179 678 L211 678 Z " />
<glyph glyph-name="minus" unicode="&#x2212;" horiz-adv-x="667" d="M22 314 L22 269 L689 269 L689 314 L22 314 Z " />
<glyph glyph-name="fi" unicode="&#xfb01;" horiz-adv-x="521" d="M305 119 C296 78 294 69 294 56 C294 -6 353 -10 367 -10 C404 -10 453 14 489 72 C503 94 512 115 519 133 L501 141 C456 31 410 22 403 22 C390 22 382 33 382 48 C382 58 385 70 389 87 L465 413 L216 413 L227 462 C254 571 286 693 359 693 C378 693 398 684 398 663 C398 655 391 634 391 626 C391 603 413 583 440 583 C470 583 488 606 488 631 C488 686 433 713 376 713 C349 713 305 707 260 671 C182 610 150 503 122 413 L28 413 L23 393 L117 393 L8 -102 C-8 -175 -29 -267 -98 -267 C-103 -267 -121 -266 -121 -254 C-121 -250 -120 -249 -115 -240 C-110 -233 -108 -227 -108 -220 C-108 -201 -122 -188 -143 -188 C-171 -188 -180 -215 -180 -229 C-180 -262 -146 -284 -100 -284 C-54 -284 -13 -260 18 -226 C88 -150 114 -43 134 42 L211 393 L369 393 L305 119 Z " />
<glyph glyph-name="fl" unicode="&#xfb02;" horiz-adv-x="521" d="M30 412 L26 392 L119 392 L10 -102 C-7 -175 -27 -267 -96 -267 C-101 -267 -119 -266 -119 -254 C-119 -250 -118 -249 -113 -240 C-108 -233 -106 -227 -106 -220 C-106 -201 -120 -188 -141 -188 C-169 -188 -178 -215 -178 -229 C-178 -262 -144 -284 -98 -284 C-52 -284 -11 -260 20 -226 C90 -150 120 -29 136 42 L213 392 L365 392 L311 162 C296 97 292 77 292 57 C292 28 308 -10 359 -10 C445 -10 492 86 514 132 L498 140 C478 102 437 24 399 24 C388 24 377 30 377 47 C377 55 382 72 385 86 L530 706 L443 698 L436 701 C409 712 385 712 377 712 C210 712 147 499 124 412 L30 412 Z M228 461 C260 590 290 692 363 692 C383 692 400 684 400 668 C400 663 399 662 390 645 C388 641 386 636 386 630 C386 610 404 605 414 602 L369 412 L217 412 L228 461 Z " />
</font>
</svg>
